<svg class="animated" id="freepik_stories-files-sent" xmlns="http://www.w3.org/2000/svg" viewBox="0 0 500 500" version="1.1" xmlns:xlink="http://www.w3.org/1999/xlink" xmlns:svgjs="http://svgjs.com/svgjs"><style>svg#freepik_stories-files-sent:not(.animated) .animable {opacity: 0;}svg#freepik_stories-files-sent.animated #freepik--Shadows--inject-105 {animation: 1.5s Infinite  linear wind;animation-delay: 0s;}svg#freepik_stories-files-sent.animated #freepik--Pictures--inject-105 {animation: 0.5s 1 forwards cubic-bezier(.36,-0.01,.5,1.38) lightSpeedLeft;animation-delay: 0s;}svg#freepik_stories-files-sent.animated #freepik--Plant--inject-105 {animation: 1.5s Infinite  linear spin;animation-delay: -3s;}svg#freepik_stories-files-sent.animated #freepik--Window--inject-105 {animation: 0.5s 1 forwards ease-in lightSpeedRight;animation-delay: 0s;}svg#freepik_stories-files-sent.animated #freepik--Character--inject-105 {animation: 1.5s Infinite  linear wind;animation-delay: -2s;}svg#freepik_stories-files-sent.animated #freepik--Progress--inject-105 {animation: 1.5s Infinite  linear shake;animation-delay: -2.5s;}svg#freepik_stories-files-sent.animated #freepik--speech-bubble--inject-105 {animation: 1.5s Infinite  linear spin;animation-delay: -1.5s;}svg#freepik_stories-files-sent.animated #freepik--Folder--inject-105 {animation: 1.5s Infinite  linear floating;animation-delay: -1s;}            @keyframes wind {                0% {                    transform: rotate( 0deg );                }                25% {                    transform: rotate( 1deg );                }                75% {                    transform: rotate( -1deg );                }            }                    @keyframes lightSpeedLeft {              from {                transform: translate3d(-50%, 0, 0) skewX(20deg);                opacity: 0;              }              60% {                transform: skewX(-10deg);                opacity: 1;              }              80% {                transform: skewX(2deg);              }              to {                opacity: 1;                transform: translate3d(0, 0, 0);              }            }                 @keyframes spin {             from {                 transform: rotate(0);               }               to {                 transform: rotate(360deg);               }         }                 @keyframes lightSpeedRight {              from {                transform: translate3d(50%, 0, 0) skewX(-20deg);                opacity: 0;              }              60% {                transform: skewX(10deg);                opacity: 1;              }              80% {                transform: skewX(-2deg);              }              to {                opacity: 1;                transform: translate3d(0, 0, 0);              }            }                    @keyframes shake {                10%, 90% {                    transform: translate3d(-1px, 0, 0);                  }                  20%, 80% {                    transform: translate3d(2px, 0, 0);                  }                  30%, 50%, 70% {                    transform: translate3d(-4px, 0, 0);                  }                  40%, 60% {                    transform: translate3d(4px, 0, 0);                  }            }                    @keyframes floating {                0% {                    opacity: 1;                    transform: translateY(0px);                }                50% {                    transform: translateY(-10px);                }                100% {                    opacity: 1;                    transform: translateY(0px);                }            }        .animator-hidden { display: none; }</style><g id="freepik--Floor--inject-105" class="animable animator-active animator-hidden" style="transform-origin: 249.984px 353.953px;"><path d="M411.22,260.26c-89.62-51.75-234.46-51.75-323.5,0s-88.57,135.64,1,187.39,234.47,51.74,323.51,0S500.85,312,411.22,260.26Z" style="fill: rgb(245, 245, 245); transform-origin: 249.984px 353.953px;" id="eljhtrk5nxklq" class="animable"></path></g><g id="freepik--Shadows--inject-105" class="animable animator-hidden" style="transform-origin: 264.49px 346.289px;"><path d="M105,315.68c29.62-17.1,77.49-17.1,106.91,0,26,15.11,28.89,38.51,8.79,55.55,16.22-1,33,2.09,45.42,9.29,21.75,12.64,21.63,33.13-.25,45.76s-57.26,12.64-79,0c-17.3-10-20.75-25.07-10.42-37.16-24.93,3.61-52.37-.23-71.79-11.51C75.19,360.51,75.34,332.79,105,315.68Z" style="fill: rgb(224, 224, 224); transform-origin: 182.506px 369.306px;" id="el381pl5eqtjm" class="animable"></path><path d="M396.05,359.18l-122.88-71.5a2.29,2.29,0,0,1,0-4l45.68-26.55a2.3,2.3,0,0,1,2.3,0l124,72.17a2.29,2.29,0,0,1,0,4l-44.53,25.88A4.58,4.58,0,0,1,396.05,359.18Z" style="fill: rgb(224, 224, 224); transform-origin: 359.16px 308.306px;" id="elp5ahiy8v1il" class="animable"></path><path d="M420,387.38c-7.29-4.2-19.06-4.2-26.3,0s-7.2,11,.09,15.23,19.06,4.21,26.29,0S427.29,391.59,420,387.38Z" style="fill: rgb(224, 224, 224); transform-origin: 406.891px 395.003px;" id="el1il24i4fdl6" class="animable"></path></g><g id="freepik--Pictures--inject-105" class="animable animator-hidden" style="transform-origin: 135.25px 130.46px;"><polygon points="118.05 97.43 83.68 117.28 83.75 143.55 118.13 123.7 118.05 97.43" style="fill: none; transform-origin: 100.905px 120.49px;" id="elwwvemizbe9m" class="animable"></polygon><polygon points="118.05 97.43 118.13 123.7 121.31 125.55 121.23 95.6 118.05 97.43" style="fill: rgb(240, 240, 240); transform-origin: 119.68px 110.575px;" id="elqbue5uww15h" class="animable"></polygon><polygon points="83.75 143.55 83.77 147.23 121.31 125.55 118.13 123.7 83.75 143.55" style="fill: rgb(245, 245, 245); transform-origin: 102.53px 135.465px;" id="elh1fsifm5ljb" class="animable"></polygon><path d="M125.06,89,79.82,115.08l.11,38.79,45.24-26.12ZM83.77,147.23l0-3.68-.07-26.27,34.37-19.85,3.18-1.83.08,30Z" style="fill: rgb(224, 224, 224); transform-origin: 102.495px 121.435px;" id="elhd4j3xd5bgl" class="animable"></path><polygon points="125.06 88.96 121.88 87.11 76.64 113.23 79.82 115.08 125.06 88.96" style="fill: rgb(245, 245, 245); transform-origin: 100.85px 101.095px;" id="el2rd4ghli5j5" class="animable"></polygon><polygon points="76.64 113.23 76.75 152.02 79.93 153.87 79.82 115.08 76.64 113.23" style="fill: rgb(240, 240, 240); transform-origin: 78.285px 133.55px;" id="el5ya42lxttfd" class="animable"></polygon><polygon points="118.03 156.39 83.66 176.24 83.73 202.51 118.11 182.66 118.03 156.39" style="fill: none; transform-origin: 100.885px 179.45px;" id="elms5oyxiahhb" class="animable"></polygon><polygon points="118.03 156.39 118.11 182.66 121.29 184.51 121.2 154.56 118.03 156.39" style="fill: rgb(240, 240, 240); transform-origin: 119.66px 169.535px;" id="eliz4jr8l0h6a" class="animable"></polygon><polygon points="83.73 202.51 83.74 206.19 121.29 184.51 118.11 182.66 83.73 202.51" style="fill: rgb(245, 245, 245); transform-origin: 102.51px 194.425px;" id="elrya02xrvyzp" class="animable"></polygon><path d="M125,147.92,79.8,174l.11,38.79,45.24-26.12Zm-41.3,58.27v-3.68l-.07-26.28L118,156.39l3.17-1.83.09,29.95Z" style="fill: rgb(224, 224, 224); transform-origin: 102.475px 180.355px;" id="elsdesbzf1tpl" class="animable"></path><polygon points="125.04 147.92 121.86 146.07 76.61 172.19 79.8 174.04 125.04 147.92" style="fill: rgb(245, 245, 245); transform-origin: 100.825px 160.055px;" id="elrmtxj5x9y9" class="animable"></polygon><polygon points="76.61 172.19 76.72 210.98 79.91 212.83 79.8 174.04 76.61 172.19" style="fill: rgb(240, 240, 240); transform-origin: 78.26px 192.51px;" id="el6nux19iex9e" class="animable"></polygon><path d="M171.16,113.63h0c.41-.19.82-.4,1.23-.6h0C172,113.24,171.57,113.44,171.16,113.63Z" style="fill: none; transform-origin: 171.775px 113.33px;" id="el0kc8bgxfq50n" class="animable"></path><path d="M170.72,113.85h0l.46-.22h0Z" style="fill: none; transform-origin: 170.95px 113.74px;" id="elhet7w3ao0zv" class="animable"></path><polygon points="185.19 62.44 175.79 67.87 166.23 73.39 175.79 67.87 185.19 62.44" style="fill: none; transform-origin: 175.71px 67.915px;" id="el0xbp7g25nms" class="animable"></polygon><polygon points="185.27 93.43 185.25 84.71 185.23 76.74 185.25 84.71 185.27 93.43" style="fill: none; transform-origin: 185.25px 85.085px;" id="elmv506i1ggab" class="animable"></polygon><path d="M172.4,113l.26-.13-.26.13Z" style="fill: none; transform-origin: 172.53px 112.935px;" id="elgqnbo7fvicf" class="animable"></path><polygon points="185.38 131.66 185.36 124.37 185.34 117.99 185.36 124.37 185.38 131.66" style="fill: none; transform-origin: 185.36px 124.825px;" id="elwq5psnjwk1" class="animable"></polygon><path d="M167.07,115.35c1.2-.43,2.42-.94,3.64-1.5h0C169.49,114.41,168.27,114.92,167.07,115.35Z" style="fill: none; transform-origin: 168.89px 114.6px;" id="el22awiv3iger" class="animable"></path><polygon points="157.27 89.36 157.35 117.37 157.4 133.6 157.35 117.37 157.27 89.36" style="fill: none; transform-origin: 157.335px 111.48px;" id="elbr1zqf1ln58" class="animable"></polygon><path d="M185.36,124.37l0-6.38-.29.16-.53.32c-4.71,2.84-9.44,7.32-13.85,12.15-.73.8-1.45,1.61-2.16,2.42-3.71,4.26-7.34,8.76-11.08,13l0,10.31,4.5-2.59A98.94,98.94,0,0,1,185.36,124.37Z" style="fill: rgb(235, 235, 235); transform-origin: 171.405px 137.17px;" id="el0md5d0s47wm" class="animable"></path><path d="M185.41,140.19l0-8.53a53.79,53.79,0,0,0-9.56,14.06Z" style="fill: rgb(235, 235, 235); transform-origin: 180.63px 138.69px;" id="el4psrhqc0dt" class="animable"></path><path d="M175.82,145.72a53.79,53.79,0,0,1,9.56-14.06l0-7.29A98.94,98.94,0,0,0,162,153.73l13.86-8Z" style="fill: rgb(250, 250, 250); transform-origin: 173.69px 139.05px;" id="elwv5c78mvdn" class="animable"></path><path d="M170.72,113.85h0" style="fill: none; stroke: gray; stroke-linecap: round; stroke-linejoin: round; stroke-width: 0px; transform-origin: 170.72px 113.85px;" id="elkog796huqq" class="animable"></path><path d="M171.16,113.63h0" style="fill: none; stroke: gray; stroke-linecap: round; stroke-linejoin: round; stroke-width: 0px; transform-origin: 171.16px 113.63px;" id="ell049ml1r2yb" class="animable"></path><path d="M166.42,115.58l.65-.23c1.2-.43,2.42-.94,3.65-1.5l.44-.22c.41-.19.83-.39,1.24-.6.71-.37,1.42-.74,2.14-1.15-.72.41-1.43.78-2.14,1.15l.26-.13c.62-.32,1.25-.66,1.88-1l.4-.23.33-.19a68.65,68.65,0,0,0,9.62-6.89l.42-.36,0-10.78c-6.84,3.5-13.57,4.59-19,2.9a16.7,16.7,0,0,1-9-7l.08,28A33.33,33.33,0,0,0,166.42,115.58Z" style="fill: rgb(250, 250, 250); transform-origin: 171.31px 103.35px;" id="elr3cpnn97ns9" class="animable"></path><path d="M170.67,130.62c4.41-4.83,9.14-9.31,13.85-12.15l.53-.32.29-.16v-6.18A133.92,133.92,0,0,0,160.13,131c-.91.87-1.82,1.76-2.73,2.61l0,12.41c3.74-4.21,7.37-8.71,11.08-13C169.22,132.23,169.94,131.42,170.67,130.62Z" style="fill: rgb(250, 250, 250); transform-origin: 171.37px 128.915px;" id="elqhv6obyvdtj" class="animable"></path><path d="M185.33,111.81l0-7.6-.42.36a68.65,68.65,0,0,1-9.62,6.89l-.33.19-.4.23c-.63.36-1.26.7-1.88,1l-.26.13a1.4,1.4,0,0,0-.17.09h0a1.4,1.4,0,0,1,.17-.09c-.41.2-.82.41-1.23.6l-.46.22c-1.22.56-2.44,1.07-3.64,1.5l.68-.25-.68.25-.65.23a33.33,33.33,0,0,1-9.07,1.79l.05,16.23c.91-.85,1.82-1.74,2.73-2.61A133.92,133.92,0,0,1,185.33,111.81Z" style="fill: rgb(235, 235, 235); transform-origin: 171.35px 118.895px;" id="el1bywt6purjt" class="animable"></path><path d="M185.25,84.71l0-8c-4.32-1-7.68-4.16-9.44-8.87l-9.56,5.52A19.74,19.74,0,0,0,185.25,84.71Z" style="fill: rgb(250, 250, 250); transform-origin: 175.75px 76.2908px;" id="elgo2c31rbtfe" class="animable"></path><path d="M166.27,96.33c5.43,1.69,12.16.6,19-2.9l0-8.72a19.74,19.74,0,0,1-19-11.32l-9,5.19,0,10.77A16.7,16.7,0,0,0,166.27,96.33Z" style="fill: rgb(235, 235, 235); transform-origin: 171.27px 85.2506px;" id="el4mshvm5ojk5" class="animable"></path><path d="M186.76,59.73l-31.1,18,.23,81.35,31.1-18Zm-29.3,96.59,0-10.31,0-12.41-.05-16.23-.08-28,0-10.77,9-5.19,9.56-5.52,9.4-5.43,0,14.3,0,8,0,8.72,0,10.78,0,7.6V118l0,6.38,0,7.29,0,8.53-9.59,5.53h0l-13.86,8Z" style="fill: rgb(255, 255, 255); transform-origin: 171.325px 109.405px;" id="el46mnmzbj67y" class="animable"></path><path d="M172.21,113.13h0" style="fill: none; stroke: gray; stroke-linecap: round; stroke-linejoin: round; stroke-width: 0px; transform-origin: 172.21px 113.13px;" id="elx9l4b64gayg" class="animable"></path><path d="M172.23,113.12a1.4,1.4,0,0,1,.17-.09" style="fill: none; stroke: gray; stroke-linecap: round; stroke-linejoin: round; stroke-width: 0px; transform-origin: 172.315px 113.075px;" id="elzoaxww5gc" class="animable"></path><path d="M174.54,111.88c-.72.41-1.43.78-2.14,1.15" style="fill: none; stroke: gray; stroke-linecap: round; stroke-linejoin: round; stroke-width: 0px; transform-origin: 173.47px 112.455px;" id="elfe6ik4p3t05" class="animable"></path><line x1="172.4" y1="113.03" x2="172.4" y2="113.03" style="fill: none; stroke: gray; stroke-linecap: round; stroke-linejoin: round; stroke-width: 0px; transform-origin: 172.4px 113.03px;" id="eljowa1boycxp" class="animable"></line><path d="M167.07,115.35l.68-.25" style="fill: none; stroke: gray; stroke-linecap: round; stroke-linejoin: round; stroke-width: 0px; transform-origin: 167.41px 115.225px;" id="eli6g9b06asf" class="animable"></path><path d="M185.23,76.74l0-14.3-9.4,5.43C177.55,72.58,180.91,75.73,185.23,76.74Z" style="fill: rgb(235, 235, 235); transform-origin: 180.53px 69.59px;" id="elvu6q786jfal" class="animable"></path><polygon points="186.99 141.08 155.89 159.04 155.89 161.2 188.85 142.17 186.99 141.08" style="fill: rgb(202, 202, 202); transform-origin: 172.37px 151.14px;" id="elnqq8qoac8i" class="animable"></polygon><polygon points="186.75 59.73 186.99 141.08 188.85 142.17 188.62 58.66 186.75 59.73" style="fill: rgb(240, 240, 240); transform-origin: 187.8px 100.415px;" id="eln29eehz54zq" class="animable"></polygon><path d="M193.62,50l-43,24.82.27,95,43-24.82ZM155.89,161.2V159l-.23-81.35,31.1-18,1.86-1.07.23,83.51Z" style="fill: rgb(224, 224, 224); transform-origin: 172.255px 109.91px;" id="el71pfhykskex" class="animable"></path><polygon points="193.62 50 190.07 48.09 147.08 72.91 150.62 74.82 193.62 50" style="fill: rgb(245, 245, 245); transform-origin: 170.35px 61.455px;" id="elqmll8v56xp" class="animable"></polygon><polygon points="147.08 72.91 147.35 167.96 150.89 169.86 150.62 74.82 147.08 72.91" style="fill: rgb(240, 240, 240); transform-origin: 148.985px 121.385px;" id="elw5no9juiipk" class="animable"></polygon><polygon points="107.13 107.41 116.51 114.78 116.53 122 85.35 140 85.33 132.79 91.27 120.98 96.61 125.13 94.72 130.99 97.46 125.78 107.13 107.41" style="fill: rgb(224, 224, 224); transform-origin: 100.93px 123.705px;" id="elugouriuz6fd" class="animable"></polygon><path d="M96.89,111c1.47-.85,2.66-.17,2.67,1.52a5.86,5.86,0,0,1-2.65,4.59c-1.47.84-2.66.16-2.67-1.52A5.85,5.85,0,0,1,96.89,111Z" style="fill: rgb(224, 224, 224); transform-origin: 96.9px 114.052px;" id="el8nx8qy3rgli" class="animable"></path><polygon points="107.11 166.36 116.48 173.75 116.5 180.96 85.33 198.96 85.31 191.75 91.25 179.94 96.58 184.09 94.7 189.95 97.43 184.74 107.11 166.36" style="fill: rgb(224, 224, 224); transform-origin: 100.905px 182.66px;" id="ele5hqn35w5de" class="animable"></polygon><path d="M96.87,170c1.47-.85,2.66-.17,2.66,1.52a5.85,5.85,0,0,1-2.64,4.59c-1.47.84-2.67.16-2.67-1.52A5.82,5.82,0,0,1,96.87,170Z" style="fill: rgb(224, 224, 224); transform-origin: 96.875px 173.052px;" id="eld8oy78wp0wv" class="animable"></path></g><g id="freepik--Furniture--inject-105" class="animable animator-hidden" style="transform-origin: 361.43px 276.055px;"><polygon points="287.13 285.93 282.6 288.57 282.61 283.32 287.13 285.93" style="fill: rgb(230, 230, 230); transform-origin: 284.865px 285.945px;" id="eli2qajb3u8sa" class="animable"></polygon><polygon points="282.72 257.95 282.72 257.89 282.72 257.89 282.72 257.89 282.72 257.95" style="fill: rgb(120, 120, 120); transform-origin: 282.72px 257.92px;" id="elxj2qut3x4jk" class="animable"></polygon><rect x="337.99" y="225.97" height="127.6" style="fill: rgb(207, 207, 207); transform-origin: 337.99px 289.77px;" id="elfy4vgd7qaql" class="animable"></rect><polygon points="282.79 232.44 393.32 296.19 393.32 296.19 282.79 232.44" style="fill: rgb(207, 207, 207); transform-origin: 338.055px 264.315px;" id="elhwmemz0i9pn" class="animable"></polygon><path d="M287.13,285.93l106.09,61.2v5.24l4.72,2.73.17-61.63-120-69.25-.18,61.62,4.73,2.73v-5.25Zm106.14,30.25L282.74,252.42l.05-20,110.53,63.75h0Zm-.08,25.45L282.66,277.88l.06-19.93v-.06h0l110.53,63.76h0Z" style="fill: rgb(235, 235, 235); transform-origin: 338.02px 289.66px;" id="elooaqz6k9il" class="animable"></path><polygon points="282.67 277.88 282.72 257.95 282.72 257.89 393.25 321.65 393.25 321.65 393.19 341.63 282.67 277.88" style="fill: rgb(245, 245, 245); transform-origin: 337.96px 299.76px;" id="el3id4v8xzhqq" class="animable"></polygon><polygon points="282.74 252.42 282.79 232.44 393.32 296.19 393.32 296.19 393.27 316.18 282.74 252.42" style="fill: rgb(245, 245, 245); transform-origin: 338.03px 274.31px;" id="elv35q6u39y7" class="animable"></polygon><polygon points="398.1 293.47 444.93 266.26 444.75 327.89 397.93 355.1 398.1 293.47" style="fill: rgb(230, 230, 230); transform-origin: 421.43px 310.68px;" id="el3w4eslzezny" class="animable"></polygon><polygon points="398.1 293.47 278.05 224.22 324.87 197.01 444.93 266.26 398.1 293.47" style="fill: rgb(245, 245, 245); transform-origin: 361.49px 245.24px;" id="el7iizttm7ppi" class="animable"></polygon><path d="M345.33,276.14v3.59c0,1.8-1.28,2.53-2.85,1.62l-13.59-7.84a6.23,6.23,0,0,1-2.82-4.9V265Z" style="fill: rgb(235, 235, 235); transform-origin: 335.7px 273.371px;" id="elev5kwnkjiq9" class="animable"></path><polygon points="345.33 272.77 345.32 276.14 326.07 265.02 326.08 261.65 345.33 272.77" style="fill: rgb(224, 224, 224); transform-origin: 335.7px 268.895px;" id="elfsk0ibw0ae7" class="animable"></polygon><g id="elbk05ce79d3o"><g style="opacity: 0.1; transform-origin: 335.7px 268.895px;" class="animable" id="ela01vt1klzmg"><polygon points="345.33 272.77 345.32 276.14 326.07 265.02 326.08 261.65 345.33 272.77" id="el0501xrhe1x9" class="animable" style="transform-origin: 335.7px 268.895px;"></polygon></g></g><path d="M345.33,301.81v3.58c0,1.81-1.28,2.53-2.85,1.63l-13.59-7.84a6.24,6.24,0,0,1-2.82-4.9v-3.59Z" style="fill: rgb(235, 235, 235); transform-origin: 335.7px 299.049px;" id="ely620j6l7lg" class="animable"></path><polygon points="345.33 298.44 345.32 301.81 326.07 290.69 326.08 287.32 345.33 298.44" style="fill: rgb(224, 224, 224); transform-origin: 335.7px 294.565px;" id="elva3uy29218b" class="animable"></polygon><g id="el64lqtosmodq"><g style="opacity: 0.1; transform-origin: 335.7px 294.565px;" class="animable" id="elxfq2j8wgjjm"><polygon points="345.33 298.44 345.32 301.81 326.07 290.69 326.08 287.32 345.33 298.44" id="elprb44ix7koi" class="animable" style="transform-origin: 335.7px 294.565px;"></polygon></g></g></g><g id="freepik--Plant--inject-105" class="animable animator-hidden" style="transform-origin: 407.975px 343.45px;"><path d="M424.54,363.18l-17.64.52-17.63-.52c-.76,11.91,1.56,24.05,4.77,30h0a8.09,8.09,0,0,0,3.49,3.55c5.21,3,13.62,3,18.79,0a7.87,7.87,0,0,0,3.49-3.64C423,387.11,425.3,375,424.54,363.18Z" style="fill: rgb(255, 255, 255); transform-origin: 406.906px 381.08px;" id="elm1jfqmtyaxh" class="animable"></path><path d="M419.33,356c6.92,4,6.95,10.46.09,14.45s-18,4-24.95,0S387.53,360,394.39,356,412.42,352,419.33,356Z" style="fill: rgb(235, 235, 235); transform-origin: 406.897px 363.223px;" id="elqphpk2pp5g" class="animable"></path><path d="M416.6,357.55c5.39,3.11,5.42,8.16.07,11.27s-14.07,3.11-19.46,0-5.42-8.16-.07-11.27S411.21,354.43,416.6,357.55Z" style="fill: rgb(224, 224, 224); transform-origin: 406.905px 363.183px;" id="el70vw2a6yzi4" class="animable"></path><g id="elnll4hz7667d"><g style="opacity: 0.15; transform-origin: 406.905px 363.183px;" class="animable" id="el6bgnld4jwmv"><path d="M416.6,357.55c5.39,3.11,5.42,8.16.07,11.27s-14.07,3.11-19.46,0-5.42-8.16-.07-11.27S411.21,354.43,416.6,357.55Z" id="elqv5dxx5xibm" class="animable" style="transform-origin: 406.905px 363.183px;"></path></g></g><path d="M435.9,287.92c-39.74,13-40.1,39.61-31.14,58.54,2.26,3.83,9.1,5.89,15.05-17.66l-10.44,1.34L421.53,324l3.16-9.44-10.14.75,12.88-5.41A190.84,190.84,0,0,1,435.9,287.92Z" style="fill: #0A99F7; transform-origin: 417.953px 318.369px;" id="elam2bqn36uk" class="animable"></path><g id="elz2mdf469lsi"><path d="M435.9,287.92c-39.74,13-40.1,39.61-31.14,58.54,2.26,3.83,9.1,5.89,15.05-17.66l-10.44,1.34L421.53,324l3.16-9.44-10.14.75,12.88-5.41A190.84,190.84,0,0,1,435.9,287.92Z" style="opacity: 0.2; transform-origin: 417.953px 318.369px;" class="animable" id="el24ypntqi75t"></path></g><g id="elwcro8ohxo5"><path d="M435.9,287.92c-39.74,13-40.1,39.61-31.14,58.54,2.26,3.83,9.1,5.89,15.05-17.66l-10.44,1.34L421.53,324l3.16-9.44-10.14.75,12.88-5.41A190.84,190.84,0,0,1,435.9,287.92Z" style="fill: rgb(255, 255, 255); opacity: 0.2; transform-origin: 417.953px 318.369px;" class="animable" id="el6e24w8uu5r9"></path></g><path d="M424.66,294.57c-21,15.91-22.85,34.15-16.93,53.19C405.63,331,403.37,314,424.66,294.57Z" style="fill: rgb(255, 255, 255); transform-origin: 414.732px 321.165px;" id="el7cmznw01fkl" class="animable"></path><path d="M368.58,314.93c39.18,5.52,43.93,30.22,38.73,49.35-1.46,3.94-7.49,7-16.95-13.95l9.95-.49L388,346.12l-4.51-8.27,9.57-1L380.12,334A180.63,180.63,0,0,0,368.58,314.93Z" style="fill: #0A99F7; transform-origin: 388.812px 341.026px;" id="elo82xg073bh" class="animable"></path><g id="eloi7kle7o9of"><path d="M368.58,314.93c39.18,5.52,43.93,30.22,38.73,49.35-1.46,3.94-7.49,7-16.95-13.95l9.95-.49L388,346.12l-4.51-8.27,9.57-1L380.12,334A180.63,180.63,0,0,0,368.58,314.93Z" style="fill: rgb(255, 255, 255); opacity: 0.2; transform-origin: 388.812px 341.026px;" class="animable" id="elbtnup1ebaz"></path></g><g id="el7s2b0oxv64n"><path d="M368.58,314.93c39.18,5.52,43.93,30.22,38.73,49.35-1.46,3.94-7.49,7-16.95-13.95l9.95-.49L388,346.12l-4.51-8.27,9.57-1L380.12,334A180.63,180.63,0,0,0,368.58,314.93Z" style="opacity: 0.1; transform-origin: 388.812px 341.026px;" class="animable" id="elrxvlvbvulb"></path></g><path d="M380.16,319.26c22.16,11.33,26.95,28,24.6,46.72C403.93,350,403.22,333.85,380.16,319.26Z" style="fill: rgb(255, 255, 255); transform-origin: 392.731px 342.62px;" id="el5dpspku37gt" class="animable"></path><path d="M447.37,324.19c-35.93.59-43,22.32-40.43,40.14.88,3.72,6,7.15,16.84-10.67l-8.91-1.56,11.55-2,5-6.95-8.52-2,11.95-1.17A164.7,164.7,0,0,1,447.37,324.19Z" style="fill: #0A99F7; transform-origin: 426.917px 345.752px;" id="el2hjkhllz92k" class="animable"></path><path d="M436.45,326.79c-21.24,7.74-27.43,22.23-27.4,39.36C411.59,351.85,414,337.37,436.45,326.79Z" style="fill: rgb(255, 255, 255); transform-origin: 422.75px 346.47px;" id="elk4rfckstgb" class="animable"></path><g id="eloacbhn28le"><path d="M447.37,324.19c-35.93.59-43,22.32-40.43,40.14.88,3.72,6,7.15,16.84-10.67l-8.91-1.56,11.55-2,5-6.95-8.52-2,11.95-1.17A164.7,164.7,0,0,1,447.37,324.19Z" style="fill: rgb(255, 255, 255); opacity: 0.2; transform-origin: 426.917px 345.752px;" class="animable" id="ele2va3i9h0x"></path></g></g><g id="freepik--Window--inject-105" class="animable animator-hidden" style="transform-origin: 385px 140.285px;"><polygon points="331.04 40.1 324.7 36.48 324.3 175 324.32 175.01 375.4 204.18 375.42 196.93 375.8 65.66 331.04 40.1" style="fill: rgb(240, 240, 240); transform-origin: 350.05px 120.33px;" id="elvizx7m1ugrq" class="animable"></polygon><g id="el93zmfvu974o"><polygon points="330.66 171.37 331.04 40.1 324.7 36.48 324.3 175 324.32 175.01 330.68 171.38 330.66 171.37" style="opacity: 0.1; transform-origin: 327.67px 105.745px;" class="animable" id="elfu9uck8eftu"></polygon></g><g id="elimc2vkpbh4"><polygon points="375.42 196.93 330.68 171.38 324.32 175.01 375.4 204.18 375.42 196.93" style="opacity: 0.2; transform-origin: 349.87px 187.78px;" class="animable" id="elv3augzpvtg9"></polygon></g><polygon points="400.94 80.01 394.6 76.39 394.2 214.91 394.22 214.92 445.3 244.09 445.32 236.84 445.7 105.57 400.94 80.01" style="fill: rgb(240, 240, 240); transform-origin: 419.95px 160.24px;" id="elp77j6q9qn0d" class="animable"></polygon><g id="el9s5h1gadgjb"><polygon points="400.56 211.28 400.94 80.01 394.6 76.39 394.2 214.91 394.22 214.92 400.58 211.29 400.56 211.28" style="opacity: 0.1; transform-origin: 397.57px 145.655px;" class="animable" id="elmcaghsravkc"></polygon></g><g id="el0ro48id8usm"><polygon points="445.32 236.84 400.58 211.29 394.22 214.92 445.3 244.09 445.32 236.84" style="opacity: 0.2; transform-origin: 419.77px 227.69px;" class="animable" id="elguiolu98r9"></polygon></g></g><g id="freepik--Character--inject-105" class="animable" style="transform-origin: 168.131px 289.776px;"><path d="M197.56,256.76c10.1,7,21.48,11.87,29.92,21.28,15.75,17.56,16.12,45.82,3.75,65.91s-35.39,32.17-58.83,34.93c-24.59,2.9-50.39-3.9-69.68-19.42S71.16,319.7,71.17,294.94,83.86,245.53,104.6,232c18.92-12.34,46.1-15.86,65.08-1.74,9.6,7.14,16,17.67,25.57,24.83C196,255.67,196.78,256.22,197.56,256.76Z" style="fill: #0A99F7; transform-origin: 155.563px 300.322px;" id="elyhg2ssh6hn" class="animable"></path><g id="elqiimpe4ds6"><path d="M197.56,256.76c10.1,7,21.48,11.87,29.92,21.28,15.75,17.56,16.12,45.82,3.75,65.91s-35.39,32.17-58.83,34.93c-24.59,2.9-50.39-3.9-69.68-19.42S71.16,319.7,71.17,294.94,83.86,245.53,104.6,232c18.92-12.34,46.1-15.86,65.08-1.74,9.6,7.14,16,17.67,25.57,24.83C196,255.67,196.78,256.22,197.56,256.76Z" style="opacity: 0.2; transform-origin: 155.563px 300.322px;" class="animable" id="elw0c87rrhng"></path></g><g id="elds52ggjmvl"><path d="M197.56,256.76c10.1,7,21.48,11.87,29.92,21.28,15.75,17.56,16.12,45.82,3.75,65.91s-35.39,32.17-58.83,34.93c-24.59,2.9-50.39-3.9-69.68-19.42S71.16,319.7,71.17,294.94,83.86,245.53,104.6,232c18.92-12.34,46.1-15.86,65.08-1.74,9.6,7.14,16,17.67,25.57,24.83C196,255.67,196.78,256.22,197.56,256.76Z" style="fill: rgb(255, 255, 255); opacity: 0.1; transform-origin: 155.563px 300.322px;" class="animable" id="el0810uopifccg"></path></g><path d="M84.37,291.55A72.27,72.27,0,0,1,146,221.39a52.81,52.81,0,0,1,7,1.17,70.45,70.45,0,0,0-66.7,69c-.46,23,10.81,46.53,30.14,62.83,15.15,12.77,35.28,21.24,57.4,24.28l-1.42.19q-3,.35-6,.51c-19.66-3.82-37.45-11.92-51.22-23.53C95.43,339.2,83.91,315.15,84.37,291.55Z" style="fill: rgb(255, 255, 255); transform-origin: 129.098px 300.38px;" id="el0mt1i9t9onk" class="animable"></path><g id="ela2kpm1tgs8k"><path d="M193.45,359.68c0-.17,0-.33-.07-.5A26.58,26.58,0,0,0,171.83,337a84.22,84.22,0,0,1-27.59-10.57c-6-3.65-11.73-8.12-18.5-10.1a30.17,30.17,0,0,0-19.93,1.16c5.68-6,15.43-8.6,23.22-5.9-5.39-8.25-10.14-17.14-12-26.82s-.54-20.31,5.3-28.25a28.43,28.43,0,0,1,43.88-2.35c5.78,6.33,9,15.23,12.83,22.91,2.73,5.52,5.55,11.16,10,15.37,6.78,6.34,16.53,8.63,23.57,14.7,8,6.88,11.41,17.88,11.45,28.42a83.91,83.91,0,0,1-3.09,21,80,80,0,0,1-28.84,17.63A31.18,31.18,0,0,0,193.45,359.68Z" style="opacity: 0.1; transform-origin: 164.935px 309.566px;" class="animable" id="eluljm7f1bric"></path></g><path d="M219.2,352c-1,4.1-1.23,11.5-1.23,11.5l-2.73-1a7,7,0,0,0-7.58,1.73l-.13.14a2.76,2.76,0,0,1-3.8.17h0a2.74,2.74,0,0,1-.93-2l-.37-11.61Z" style="fill: rgb(255, 168, 167); transform-origin: 210.815px 358.073px;" id="elu0ft0xp2lbs" class="animable"></path><path d="M208.67,395.13c5.66,6.05,16.08,11.35,23.65,6.18l-.85,1.93c-7.57,5.16-18-.13-23.65-6.18s-2-10.25-7.08-15.62a18.63,18.63,0,0,1-4.41-6.55c.23-.57.45-1.33.71-2.19a23.34,23.34,0,0,0,4.55,6.81C206.68,384.88,203,389.07,208.67,395.13Z" style="fill: rgb(245, 245, 245); transform-origin: 214.325px 389.015px;" id="elwbi6mdhy6t" class="animable"></path><path d="M199.83,366.37a10.91,10.91,0,0,0,1.78-4.13,2.41,2.41,0,0,1,1.12-1.68l.07,1.95a2.74,2.74,0,0,0,.93,2,2.76,2.76,0,0,0,3.8-.17l.13-.14a7,7,0,0,1,7.58-1.73L218,363.5a2.12,2.12,0,0,1,1.38,2c-.18,7.93,3.53,18.48,7.42,24.27,4,1.66,7.45,7.11,5.69,11.1l-.18.4c-7.57,5.17-18-.13-23.65-6.18s-2-10.25-7.08-15.62A23.34,23.34,0,0,1,197,372.7,25.18,25.18,0,0,1,199.83,366.37Z" style="fill: #0A99F7; transform-origin: 214.981px 381.962px;" id="eljljduopa0mm" class="animable"></path><g id="elgyixn1wwi1m"><path d="M199.83,366.37a10.91,10.91,0,0,0,1.78-4.13,2.41,2.41,0,0,1,1.12-1.68l.07,1.95a2.74,2.74,0,0,0,.93,2,2.76,2.76,0,0,0,3.8-.17l.13-.14a7,7,0,0,1,7.58-1.73L218,363.5a2.12,2.12,0,0,1,1.38,2c-.18,7.93,3.53,18.48,7.42,24.27,4,1.66,7.45,7.11,5.69,11.1l-.18.4c-7.57,5.17-18-.13-23.65-6.18s-2-10.25-7.08-15.62A23.34,23.34,0,0,1,197,372.7,25.18,25.18,0,0,1,199.83,366.37Z" style="opacity: 0.3; transform-origin: 214.981px 381.962px;" class="animable" id="eli5hehgcm5u"></path></g><g id="el2xc1y91pzm9"><path d="M199.83,366.37a10.91,10.91,0,0,0,1.78-4.13,2.41,2.41,0,0,1,1.12-1.68l.07,1.95a2.74,2.74,0,0,0,.93,2,2.76,2.76,0,0,0,3.8-.17l.13-.14a7,7,0,0,1,7.58-1.73L218,363.5a2.12,2.12,0,0,1,1.38,2c-.18,7.93,3.53,18.48,7.42,24.27,4,1.66,7.45,7.11,5.69,11.1l-.18.4c-7.57,5.17-18-.13-23.65-6.18s-2-10.25-7.08-15.62A23.34,23.34,0,0,1,197,372.7,25.18,25.18,0,0,1,199.83,366.37Z" style="fill: rgb(255, 255, 255); opacity: 0.2; transform-origin: 214.981px 381.962px;" class="animable" id="eluq1q8se7fpc"></path></g><path d="M210.91,377.83a1,1,0,0,1-1.29-.43,1,1,0,0,1,.4-1.28,11,11,0,0,1,10.87,0c.17.63.35,1.25.54,1.87C218.22,376.37,215,375.78,210.91,377.83Z" style="fill: rgb(255, 255, 255); transform-origin: 215.479px 376.337px;" id="el6uv2x3p12bb" class="animable"></path><path d="M209.51,373.54a1,1,0,0,1-.89-1.72,11.64,11.64,0,0,1,11.32.09q.17,1,.39,1.95C217,372.12,213.7,371.42,209.51,373.54Z" style="fill: rgb(255, 255, 255); transform-origin: 214.308px 372.128px;" id="elvwsos8mafcr" class="animable"></path><path d="M212.44,382.1a1,1,0,0,1-1.29-.43,1,1,0,0,1,.4-1.28,11,11,0,0,1,10.64-.11q.36,1,.75,2C219.74,380.64,216.49,380.05,212.44,382.1Z" style="fill: rgb(255, 255, 255); transform-origin: 216.999px 380.621px;" id="elmf6fjb6g2u" class="animable"></path><path d="M226.81,389.81c4,1.66,7.45,7.11,5.69,11.1l-.18.4c-7.46,5.09-17.67,0-23.39-5.92C213.7,386.05,223.66,388.38,226.81,389.81Z" style="fill: rgb(255, 255, 255); transform-origin: 220.951px 395.931px;" id="el74j1fqwmrym" class="animable"></path><path d="M214.11,386.27a1,1,0,0,1-.89-1.71,11,11,0,0,1,10.66-.1c.34.74.69,1.45,1,2.13C221.62,384.85,218.3,384.16,214.11,386.27Z" style="fill: rgb(255, 255, 255); transform-origin: 218.891px 384.861px;" id="elzc7w3u4rr3" class="animable"></path><path d="M231.1,375.06c.71,4.17,3.51,11,3.51,11l-2.91.16a7.05,7.05,0,0,0-6.24,4.64l-.07.18a2.75,2.75,0,0,1-3.39,1.69h0a2.75,2.75,0,0,1-1.66-1.44l-5-10.47Z" style="fill: rgb(255, 168, 167); transform-origin: 224.975px 383.955px;" id="elsb2w7w87w1" class="animable"></path><path d="M238.88,418.79c7.62,3.25,19.29,3.89,24.13-3.89V417c-4.84,7.79-16.51,7.15-24.13,3.9s-6-8.58-12.79-11.44a18.62,18.62,0,0,1-6.67-4.21c0-.62-.13-1.39-.23-2.29a23.19,23.19,0,0,0,6.9,4.4C232.92,410.21,231.25,415.53,238.88,418.79Z" style="fill: rgb(245, 245, 245); transform-origin: 241.1px 413.071px;" id="elck9mdizop8j" class="animable"></path><path d="M219.19,396a10.94,10.94,0,0,0,0-4.49,2.38,2.38,0,0,1,.34-2l.85,1.75a2.74,2.74,0,0,0,5-.25l.07-.18a7.05,7.05,0,0,1,6.24-4.64l3-.16a2.12,2.12,0,0,1,2.08,1.31c3,7.33,10.69,15.48,16.59,19.21,4.32-.1,9.68,3.5,9.68,7.86v.44c-4.84,7.78-16.51,7.14-24.13,3.89s-6-8.58-12.79-11.43a23.19,23.19,0,0,1-6.9-4.4A24.4,24.4,0,0,1,219.19,396Z" style="fill: #0A99F7; transform-origin: 240.999px 403.525px;" id="elztuvb31k1e8" class="animable"></path><g id="elqhi1s54q5h8"><path d="M219.19,396a10.94,10.94,0,0,0,0-4.49,2.38,2.38,0,0,1,.34-2l.85,1.75a2.74,2.74,0,0,0,5-.25l.07-.18a7.05,7.05,0,0,1,6.24-4.64l3-.16a2.12,2.12,0,0,1,2.08,1.31c3,7.33,10.69,15.48,16.59,19.21,4.32-.1,9.68,3.5,9.68,7.86v.44c-4.84,7.78-16.51,7.14-24.13,3.89s-6-8.58-12.79-11.43a23.19,23.19,0,0,1-6.9-4.4A24.4,24.4,0,0,1,219.19,396Z" style="opacity: 0.3; transform-origin: 240.999px 403.525px;" class="animable" id="eluowyl59jz6"></path></g><g id="eltoqmiqutjr"><path d="M219.19,396a10.94,10.94,0,0,0,0-4.49,2.38,2.38,0,0,1,.34-2l.85,1.75a2.74,2.74,0,0,0,5-.25l.07-.18a7.05,7.05,0,0,1,6.24-4.64l3-.16a2.12,2.12,0,0,1,2.08,1.31c3,7.33,10.69,15.48,16.59,19.21,4.32-.1,9.68,3.5,9.68,7.86v.44c-4.84,7.78-16.51,7.14-24.13,3.89s-6-8.58-12.79-11.43a23.19,23.19,0,0,1-6.9-4.4A24.4,24.4,0,0,1,219.19,396Z" style="fill: rgb(255, 255, 255); opacity: 0.2; transform-origin: 240.999px 403.525px;" class="animable" id="elyqvk8gqicbs"></path></g><path d="M233.94,402.06a1,1,0,0,1-1.5-1.21,11,11,0,0,1,9.95-4.37c.41.5.82,1,1.25,1.49A10.65,10.65,0,0,0,233.94,402.06Z" style="fill: rgb(255, 255, 255); transform-origin: 237.999px 399.334px;" id="el2s6jqhvp7eb" class="animable"></path><path d="M230.94,398.7a1,1,0,0,1-1.35.12,1,1,0,0,1-.16-1.34A11.62,11.62,0,0,1,239.82,393q.54.83,1.14,1.62C237.24,394.36,233.91,395.07,230.94,398.7Z" style="fill: rgb(255, 255, 255); transform-origin: 235.101px 395.984px;" id="el9xoijckhq7e" class="animable"></path><path d="M237.07,405.35a1,1,0,0,1-1.35.12.94.94,0,0,1-.16-1.33,11,11,0,0,1,9.69-4.39c.49.52,1,1,1.49,1.51A10.62,10.62,0,0,0,237.07,405.35Z" style="fill: rgb(255, 255, 255); transform-origin: 241.047px 402.696px;" id="el5prk2kphg1b" class="animable"></path><path d="M253.33,406.6c4.32-.1,9.68,3.5,9.68,7.86v.44c-4.77,7.67-16.16,7.16-23.78,4C239.81,408.45,249.87,406.57,253.33,406.6Z" style="fill: rgb(255, 255, 255); transform-origin: 251.12px 413.834px;" id="el4fa0ws0xgzg" class="animable"></path><path d="M240.28,408.49a1,1,0,0,1-1.51-1.21,11,11,0,0,1,9.72-4.39c.61.54,1.21,1.05,1.82,1.53C246.58,404.16,243.26,404.87,240.28,408.49Z" style="fill: rgb(255, 255, 255); transform-origin: 244.497px 405.77px;" id="elyyiorwi2yg" class="animable"></path><path d="M186.32,275.92l38.15,21.25a18.92,18.92,0,0,1,9.39,20L226.45,357l6.07,19.29c-5.24,7-17.26,7.39-17.26,7.39-6.71-13.46-11.64-19.18-15.45-30.45s-6.35-19.06-6.35-19.06l-31.68-8.66a37.52,37.52,0,0,1-27.46-31.94c-.54-4.79-.56-8.06-.56-8.06Z" style="fill: rgb(69, 90, 100); transform-origin: 183.971px 329.8px;" id="elmgolkhw5ukq" class="animable"></path><g id="eluanc63e55mm"><path d="M186,286.64a18.06,18.06,0,0,1-4.27,11.62l26.92,16.86a19.31,19.31,0,0,1,8.24,10.74L226.45,357l-8.59-34.7a15.73,15.73,0,0,0-7-9.6L186,297.35C188.54,291,186,286.64,186,286.64Z" style="opacity: 0.2; transform-origin: 204.09px 321.82px;" class="animable" id="elhf1nu73cht"></path></g><path d="M214.81,234.68l5.34,5.18c5.48-7,12.84-11.73,19.28-21.55,1.86-2.35,1.66-7,2.92-9.42,1-1.88,2.72-4.69,3.44-6.27a1.05,1.05,0,0,1,1.53-.46c1.84,1.33.87,4.51-.09,7.85-1.13,3.92,4.78-1.39,5.57-2.29,3.75-3.48,7-12,9.52-11.17s.53,5.1.53,5.1c2.35.5,1.46,4.25,1.46,4.25,1.4,2.45,1,6.24-1.85,9.75-2.08,2.56-7.69,6.06-10.6,7.78a9.58,9.58,0,0,0-3,2.87L230.5,253.53a11.12,11.12,0,0,1-15.88,2.7l-10-7.45Z" style="fill: rgb(255, 168, 167); transform-origin: 234.856px 227.467px;" id="elg5j02x43fkc" class="animable"></path><path d="M233.4,226c-3.37,4-9.32,6.51-13.11,12.86l-4.81-4.46c-7.76-7.76-21.54-24.24-31.69-23.79v23.19a220.66,220.66,0,0,0,20.88,16.32L216,258a10.71,10.71,0,0,0,15.24-3.27l12.87-21.3A11.83,11.83,0,0,1,233.4,226Z" style="fill: #0A99F7; transform-origin: 213.95px 235.247px;" id="el4fpm00a5i06" class="animable"></path><g id="elqqcw2ka1pwk"><path d="M233.4,226c-3.37,4-9.32,6.51-13.11,12.86l-4.81-4.46c-7.76-7.76-21.54-24.24-31.69-23.79v23.19a220.66,220.66,0,0,0,20.88,16.32L216,258a10.71,10.71,0,0,0,15.24-3.27l12.87-21.3A11.83,11.83,0,0,1,233.4,226Z" style="fill: rgb(255, 255, 255); opacity: 0.2; transform-origin: 213.95px 235.247px;" class="animable" id="el0w9kvets143"></path></g><path d="M133.15,288.5c6.76,6.5,39.27,7.7,55.86-8.09-1.59-11.15-1.06-23.09,0-34.9s8-32.47-5.22-34.87c-17.6-3.44-29.1-3.17-40.87,3.46C130.36,235,132.08,266.34,133.15,288.5Z" style="fill: #0A99F7; transform-origin: 162.093px 250.741px;" id="elv1dfzskivn" class="animable"></path><path d="M133.15,288.5c6.76,6.5,39.27,7.7,55.86-8.09-1.59-11.15-1.06-23.09,0-34.9s8-32.47-5.22-34.87c-17.6-3.44-29.1-3.17-40.87,3.46C130.36,235,132.08,266.34,133.15,288.5Z" style="fill: #0A99F7; transform-origin: 162.093px 250.741px;" id="el7wrcwukloqs" class="animable"></path><g id="el1wt6kbod1td"><path d="M133.15,288.5c6.76,6.5,39.27,7.7,55.86-8.09-1.59-11.15-1.06-23.09,0-34.9s8-32.47-5.22-34.87c-17.6-3.44-29.1-3.17-40.87,3.46C130.36,235,132.08,266.34,133.15,288.5Z" style="fill: rgb(255, 255, 255); opacity: 0.4; transform-origin: 162.093px 250.741px;" class="animable" id="elnko3p0dyt1g"></path></g><path d="M159.39,302.52a1.48,1.48,0,0,0,.05.51,0,0,0,0,1,0,0,1.2,1.2,0,0,0,.2.39l0,.05a2,2,0,0,0,.35.38l0,0a2.58,2.58,0,0,0,.51.37l27.92,16.23a5.23,5.23,0,0,0,.8.35l.31.09.41.1a3.86,3.86,0,0,0,.49.09h.12a5.32,5.32,0,0,0,.69,0h.1a5.07,5.07,0,0,0,.68,0h.1a4.64,4.64,0,0,0,.65-.11l.12,0a5.18,5.18,0,0,0,.56-.17l.1,0a5.07,5.07,0,0,0,.62-.29l46.06-26.6a3.78,3.78,0,0,0,.53-.37,1.79,1.79,0,0,1,.13-.14,2.91,2.91,0,0,0,.24-.27c0-.06.06-.12.09-.17a1.66,1.66,0,0,0,.13-.27,1.06,1.06,0,0,0,0-.19,2.17,2.17,0,0,0,0-.25v1.63a2.34,2.34,0,0,1,0,.26,1.29,1.29,0,0,1,0,.19,1.58,1.58,0,0,1-.13.26.91.91,0,0,1-.09.17,2,2,0,0,1-.24.27,1.79,1.79,0,0,1-.13.14,3.1,3.1,0,0,1-.53.37l-46.06,26.6a3.92,3.92,0,0,1-.62.29l-.1,0a5.22,5.22,0,0,1-.56.18l-.12,0c-.21.05-.43.09-.65.12h-.1l-.68,0h-.1l-.69,0-.12,0-.49-.08-.41-.1-.31-.1a5.23,5.23,0,0,1-.8-.35L160.55,305.9a2.55,2.55,0,0,1-.51-.36l0,0a2,2,0,0,1-.35-.38l0,0a1.45,1.45,0,0,1-.2-.39s0,0,0,0a1.54,1.54,0,0,1,0-.37h0v-1.77Z" style="fill: rgb(224, 224, 224); transform-origin: 200.37px 307.49px;" id="ely9q9j5w6h8r" class="animable"></path><g id="elgvo95prqvw"><path d="M159.39,302.52a1.48,1.48,0,0,0,.05.51,0,0,0,0,1,0,0,1.2,1.2,0,0,0,.2.39l0,.05a2,2,0,0,0,.35.38l0,0a2.58,2.58,0,0,0,.51.37l27.92,16.23a5.23,5.23,0,0,0,.8.35l.31.09.41.1a3.86,3.86,0,0,0,.49.09h.12a5.32,5.32,0,0,0,.69,0h.1a5.07,5.07,0,0,0,.68,0h.1a4.64,4.64,0,0,0,.65-.11l.12,0a5.18,5.18,0,0,0,.56-.17l.1,0a5.07,5.07,0,0,0,.62-.29l46.06-26.6a3.78,3.78,0,0,0,.53-.37,1.79,1.79,0,0,1,.13-.14,2.91,2.91,0,0,0,.24-.27c0-.06.06-.12.09-.17a1.66,1.66,0,0,0,.13-.27,1.06,1.06,0,0,0,0-.19,2.17,2.17,0,0,0,0-.25v1.63a2.34,2.34,0,0,1,0,.26,1.29,1.29,0,0,1,0,.19,1.58,1.58,0,0,1-.13.26.91.91,0,0,1-.09.17,2,2,0,0,1-.24.27,1.79,1.79,0,0,1-.13.14,3.1,3.1,0,0,1-.53.37l-46.06,26.6a3.92,3.92,0,0,1-.62.29l-.1,0a5.22,5.22,0,0,1-.56.18l-.12,0c-.21.05-.43.09-.65.12h-.1l-.68,0h-.1l-.69,0-.12,0-.49-.08-.41-.1-.31-.1a5.23,5.23,0,0,1-.8-.35L160.55,305.9a2.55,2.55,0,0,1-.51-.36l0,0a2,2,0,0,1-.35-.38l0,0a1.45,1.45,0,0,1-.2-.39s0,0,0,0a1.54,1.54,0,0,1,0-.37h0v-1.77Z" style="opacity: 0.2; transform-origin: 200.37px 307.49px;" class="animable" id="els7x0odr4jy"></path></g><path d="M241.4,292.68a1.66,1.66,0,0,1-.13.27c0,.05-.05.11-.09.17a2.91,2.91,0,0,1-.24.27,1.79,1.79,0,0,0-.13.14,3.78,3.78,0,0,1-.53.37l-46.06,26.6a5.07,5.07,0,0,1-.62.29l-.1,0a5.18,5.18,0,0,1-.56.17l-.12,0a4.64,4.64,0,0,1-.65.11h-.1a5.07,5.07,0,0,1-.68,0h-.1a5.32,5.32,0,0,1-.69,0h-.12A3.86,3.86,0,0,1,190,321l-.41-.1-.31-.09a5.23,5.23,0,0,1-.8-.35l-27.92-16.23a2.58,2.58,0,0,1-.51-.37l0,0a2,2,0,0,1-.35-.38l0-.05a1.2,1.2,0,0,1-.2-.39,0,0,0,0,0,0,0,1.48,1.48,0,0,1-.05-.51,2.06,2.06,0,0,1,1.19-1.57l46.06-26.6a6.29,6.29,0,0,1,5.73,0l27.92,16.23a2,2,0,0,1,1.19,1.66,2.17,2.17,0,0,1,0,.25A1.06,1.06,0,0,1,241.4,292.68Z" style="fill: rgb(224, 224, 224); transform-origin: 200.495px 297.376px;" id="elxj5k0ema5s" class="animable"></path><path d="M237.57,292.23l-44.75,25.84-.18.09-.1,0a2.37,2.37,0,0,1-.35.1l-.24,0-.17,0-.44,0h0l-.46,0-.29-.05-.36-.1a1.2,1.2,0,0,1-.31-.13l-14.4-8.36L221.71,283Z" style="fill: rgb(224, 224, 224); transform-origin: 206.545px 300.63px;" id="el37f2m09z2k5" class="animable"></path><path d="M191.29,318.38h0Z" style="fill: rgb(38, 50, 56); transform-origin: 191.29px 318.38px;" id="elq20eywo0ic" class="animable"></path><path d="M195,285.13l8.42,4.95a.85.85,0,0,1,0,1.47l-12.59,7.27a1.39,1.39,0,0,1-1.41,0L181,293.86a.85.85,0,0,1,0-1.47l12.58-7.27A1.39,1.39,0,0,1,195,285.13Z" style="fill: rgb(224, 224, 224); transform-origin: 192.21px 291.971px;" id="elc2wbwcf1zgb" class="animable"></path><g id="elzkrby1mez5h"><path d="M237.57,292.23l-44.75,25.84-.18.09-.1,0a2.37,2.37,0,0,1-.35.1l-.24,0-.17,0-.44,0h0l-.46,0-.29-.05-.36-.1a1.2,1.2,0,0,1-.31-.13l-14.4-8.36L221.71,283Z" style="opacity: 0.4; transform-origin: 206.545px 300.63px;" class="animable" id="elmfisrkt14sq"></path></g><g id="el5lcif5yzrdm"><path d="M195,285.13l8.42,4.95a.85.85,0,0,1,0,1.47l-12.59,7.27a1.39,1.39,0,0,1-1.41,0L181,293.86a.85.85,0,0,1,0-1.47l12.58-7.27A1.39,1.39,0,0,1,195,285.13Z" style="opacity: 0.4; transform-origin: 192.21px 291.971px;" class="animable" id="eljxjotv0qs1s"></path></g><path d="M191.62,318.84l4.77-30.32a5.58,5.58,0,0,1,2.72-4l46.38-27a1.38,1.38,0,0,1,1.23-.08h0l1.1.55-.37.14a1.49,1.49,0,0,1,.12.82l-4.77,30.32a5.56,5.56,0,0,1-2.72,4l-46.38,27a1.25,1.25,0,0,1-.3.12l0,.45-1.07-.53h0A1.38,1.38,0,0,1,191.62,318.84Z" style="fill: rgb(224, 224, 224); transform-origin: 219.708px 289.086px;" id="el38cw8tc2g9r" class="animable"></path><g id="el1zf6g53hfme"><path d="M191.62,318.84l4.77-30.32a5.58,5.58,0,0,1,2.72-4l46.38-27a1.38,1.38,0,0,1,1.23-.08h0l1.1.55-.37.14a1.49,1.49,0,0,1,.12.82l-4.77,30.32a5.56,5.56,0,0,1-2.72,4l-46.38,27a1.25,1.25,0,0,1-.3.12l0,.45-1.07-.53h0A1.38,1.38,0,0,1,191.62,318.84Z" style="opacity: 0.3; transform-origin: 219.708px 289.086px;" class="animable" id="eltrdr0qtwlnr"></path></g><path d="M200,285l46.38-27a1.4,1.4,0,0,1,2.09,1.42l-4.77,30.33a5.62,5.62,0,0,1-2.71,4l-46.39,27a1.4,1.4,0,0,1-2.08-1.43L197.32,289A5.59,5.59,0,0,1,200,285Z" style="fill: rgb(224, 224, 224); transform-origin: 220.495px 289.372px;" id="elzsmplwf401h" class="animable"></path><path d="M222.52,285.8a10.22,10.22,0,0,0-4.6,6.63c-.31,2.37,1.26,3.24,3.5,1.95a10.27,10.27,0,0,0,4.61-6.63C226.33,285.38,224.76,284.51,222.52,285.8Z" style="fill: rgb(255, 255, 255); transform-origin: 221.974px 290.09px;" id="el2y186679rgk" class="animable"></path><path d="M145,251.58l-4.19,14.36,25.59,18.18,8.61,3.62a13.53,13.53,0,0,1,5.7,4.53l7,9.71c.79,1.63-2.87,4.28-4.63,4.73h0a6.29,6.29,0,0,1-5.81-1.45l-5.42-5-1.5-.52a22.78,22.78,0,0,1-10.88-8.17h0l-30-11.65a11.46,11.46,0,0,1-6.93-13.68l5-18.51Z" style="fill: rgb(255, 168, 167); transform-origin: 154.981px 277.319px;" id="elex09gj1lad" class="animable"></path><path d="M157.47,277.79l-16.69-11.85,3.9-11.41,7.42-22.18s.24-19.44-8-18.84-12.44,5.38-18.77,34.21l-3.76,17.21a14.26,14.26,0,0,0,9.31,16.52l21.24,7.29A10.72,10.72,0,0,1,157.47,277.79Z" style="fill: #0A99F7; transform-origin: 139.357px 251.118px;" id="elm3msksi7jem" class="animable"></path><g id="el8n85ab31kp8"><path d="M157.47,277.79l-16.69-11.85,3.9-11.41,7.42-22.18s.24-19.44-8-18.84-12.44,5.38-18.77,34.21l-3.76,17.21a14.26,14.26,0,0,0,9.31,16.52l21.24,7.29A10.72,10.72,0,0,1,157.47,277.79Z" style="fill: rgb(255, 255, 255); opacity: 0.2; transform-origin: 139.357px 251.118px;" class="animable" id="el5lerpa5teij"></path></g><path d="M161.15,203c-2.44-4.53-4.56-9.23-7-13.76-1.59-2.95-3.23-6-3.32-9.38a11,11,0,0,1,5.17-9.46c1.19-6,6.05-11.18,12.1-12,3.78-.49,7.57.5,11.37.85s8-.13,10.66-2.88a6.69,6.69,0,0,1,1.3,4,6.47,6.47,0,0,1-1.25,3.92,4.85,4.85,0,0,1,3.43.25,2.88,2.88,0,0,1,1,2.95,6,6,0,0,1-1.63,2.84,4.67,4.67,0,0,1,2.46,4.15,6.31,6.31,0,0,1-2.28,4.29c-2.43,2.08-5.82,2.49-9,2.81L168,183.21Z" style="fill: rgb(55, 71, 79); transform-origin: 173.135px 179.685px;" id="elm91855bggg" class="animable"></path><path d="M177.47,223.07h0a11.72,11.72,0,0,0,0-9.09V201.82L161.42,193l-.36,13.49C164,215,174.37,218.56,177.47,223.07Z" style="fill: rgb(255, 168, 167); transform-origin: 169.724px 208.035px;" id="eltw33ft036e" class="animable"></path><g id="elxjal9jdk0m"><path d="M169.21,205.73c2.68,1.29,6,2.6,8.26,3.44v-7.35L161.42,193C161.55,201,164.76,203.58,169.21,205.73Z" style="opacity: 0.2; transform-origin: 169.445px 201.085px;" class="animable" id="el5yc72u1h3q4"></path></g><path d="M157.7,212.41c.45,3.71,3.53,9,10,14.33,0,0,2.4-5.57,5.47-6a38.29,38.29,0,0,1,4.31,2.29c-3.1-4.51-13.49-8-16.41-16.61C160,207.5,159,210,157.7,212.41Z" style="fill: #0A99F7; transform-origin: 167.59px 216.58px;" id="elwfkgu8xzdhm" class="animable"></path><path d="M177.47,223.07a11.72,11.72,0,0,0,0-9.09v-4.81c2.93,3,6.83,7.55,7.79,12.41-1.56-1.41-3.87-4.59-4.75-2.82C179.43,222.18,177.47,223.07,177.47,223.07Z" style="fill: #0A99F7; transform-origin: 181.365px 216.12px;" id="elu22auu2ygc" class="animable"></path><g id="eludyl99et15c"><path d="M157.7,212.41c.45,3.71,3.53,9,10,14.33,0,0,2.4-5.57,5.47-6a38.29,38.29,0,0,1,4.31,2.29c-3.1-4.51-13.49-8-16.41-16.61C160,207.5,159,210,157.7,212.41Z" style="fill: rgb(255, 255, 255); opacity: 0.2; transform-origin: 167.59px 216.58px;" class="animable" id="ellhpp9y29vnl"></path></g><g id="elutnlze4mwis"><path d="M177.47,223.07a11.72,11.72,0,0,0,0-9.09v-4.81c2.93,3,6.83,7.55,7.79,12.41-1.56-1.41-3.87-4.59-4.75-2.82C179.43,222.18,177.47,223.07,177.47,223.07Z" style="fill: rgb(255, 255, 255); opacity: 0.2; transform-origin: 181.365px 216.12px;" class="animable" id="el7kse8yivfdr"></path></g><path d="M191.48,170.75a142.55,142.55,0,0,1-.77,28.1A8.16,8.16,0,0,1,181.4,206a107.81,107.81,0,0,1-11.62-2.52,10.94,10.94,0,0,1-7.77-8l-.59-2.46c-1.25,1.88-4,2.29-6.07,1.42a6.78,6.78,0,0,1-3.85-5.23,6.23,6.23,0,0,1,.29-3.31,4.32,4.32,0,0,1,2.22-2.4,4.84,4.84,0,0,1,5.35,1.52,10.43,10.43,0,0,1,2.16,5.46,16.86,16.86,0,0,0,4.22-12.14,6,6,0,0,0,3.88-2,5.31,5.31,0,0,0,1-4C176.94,175.53,185.59,174.67,191.48,170.75Z" style="fill: rgb(255, 168, 167); transform-origin: 171.62px 188.42px;" id="elymooph454k" class="animable"></path><polygon points="180.28 184.17 185.85 190.92 180.74 192.73 180.28 184.17" style="fill: rgb(242, 143, 143); transform-origin: 183.065px 188.45px;" id="elvcqehpj6awf" class="animable"></polygon><path d="M176.06,196.08l4.3,1.32a2.64,2.64,0,0,1-2.9,1.33A2.38,2.38,0,0,1,176.06,196.08Z" style="fill: rgb(242, 143, 143); transform-origin: 178.187px 197.436px;" id="elhsvmuvwi9eo" class="animable"></path><g id="el2abagh9bxj6"><path d="M176.06,196.08l4.3,1.32a2.64,2.64,0,0,1-2.9,1.33A2.38,2.38,0,0,1,176.06,196.08Z" style="opacity: 0.3; transform-origin: 178.187px 197.436px;" class="animable" id="el8v1qvjxlfg8"></path></g><path d="M178.87,198.65a2.36,2.36,0,0,1-1.41.08,2.14,2.14,0,0,1-1.39-1.94,2.54,2.54,0,0,1,1.66.31A2.5,2.5,0,0,1,178.87,198.65Z" style="fill: rgb(242, 143, 143); transform-origin: 177.47px 197.781px;" id="eltv8vgplgjud" class="animable"></path><path d="M172.7,185.65a1.53,1.53,0,1,0,1.44-1.61A1.52,1.52,0,0,0,172.7,185.65Z" style="fill: rgb(38, 50, 56); transform-origin: 174.227px 185.567px;" id="el1k9tf0tm5ho" class="animable"></path><path d="M185.5,184.47a1.53,1.53,0,1,0,1.45-1.61A1.54,1.54,0,0,0,185.5,184.47Z" style="fill: rgb(38, 50, 56); transform-origin: 187.028px 184.388px;" id="ellworp8zfirl" class="animable"></path><path d="M186.66,178.31l3.51,2.16a2.15,2.15,0,0,0-.79-2.36A2.56,2.56,0,0,0,186.66,178.31Z" style="fill: rgb(38, 50, 56); transform-origin: 188.461px 179.14px;" id="elj85yz6z734g" class="animable"></path><path d="M173.57,178.83l-3.26,2.52a2.17,2.17,0,0,1,.53-2.43A2.58,2.58,0,0,1,173.57,178.83Z" style="fill: rgb(38, 50, 56); transform-origin: 171.856px 179.916px;" id="ells9eon6m6x" class="animable"></path></g><g id="freepik--Progress--inject-105" class="animable" style="transform-origin: 291.005px 252.266px;"><path d="M326.28,222.19c1.26-.73,2.29-.15,2.29,1.3l0,8.09a5,5,0,0,1-2.27,3.94l-70.57,40.74c-1.26.73-2.29.15-2.29-1.3l0-8.09a5,5,0,0,1,2.27-3.94Z" style="fill: #0A99F7; transform-origin: 291.005px 249.225px;" id="el0k1opt0tv2tk" class="animable"></path><g id="el2sbaxukweki"><g style="opacity: 0.3; transform-origin: 291.005px 249.225px;" class="animable" id="el3bmga34n17k"><path d="M326.28,222.19c1.26-.73,2.29-.15,2.29,1.3l0,8.09a5,5,0,0,1-2.27,3.94l-70.57,40.74c-1.26.73-2.29.15-2.29-1.3l0-8.09a5,5,0,0,1,2.27-3.94Z" id="elgqa31t8ajmm" class="animable" style="transform-origin: 291.005px 249.225px;"></path></g></g><g id="elyy69tyk95dp"><g style="opacity: 0.2; transform-origin: 291.005px 249.225px;" class="animable" id="el8dxo5uaime"><path d="M326.28,222.19c1.26-.73,2.29-.15,2.29,1.3l0,8.09a5,5,0,0,1-2.27,3.94l-70.57,40.74c-1.26.73-2.29.15-2.29-1.3l0-8.09a5,5,0,0,1,2.27-3.94Z" style="fill: rgb(255, 255, 255); transform-origin: 291.005px 249.225px;" id="elexymbyhmwys" class="animable"></path></g></g><path d="M327.74,237c.47-.27.84-.05.84.48v3a1.84,1.84,0,0,1-.83,1.44l-73.48,42.67c-.46.27-.84.06-.84-.48v-3a1.83,1.83,0,0,1,.83-1.45Z" style="fill: #0A99F7; transform-origin: 291.005px 260.796px;" id="elz5cpaakymu" class="animable"></path><g id="el04zi04fsurz6"><g style="opacity: 0.3; transform-origin: 291.005px 260.796px;" class="animable" id="elywwjtglb9w"><path d="M327.74,237c.47-.27.84-.05.84.48v3a1.84,1.84,0,0,1-.83,1.44l-73.48,42.67c-.46.27-.84.06-.84-.48v-3a1.83,1.83,0,0,1,.83-1.45Z" style="fill: rgb(255, 255, 255); transform-origin: 291.005px 260.796px;" id="elt0qoyz2zx78" class="animable"></path></g></g><path d="M327.74,244.16c.47-.27.84-.06.84.48v3a1.86,1.86,0,0,1-.83,1.45l-73.48,42.67c-.46.27-.84,0-.84-.48v-3a1.82,1.82,0,0,1,.83-1.44Z" style="fill: #0A99F7; transform-origin: 291.005px 267.955px;" id="elsbdauif2b9q" class="animable"></path><g id="el98bsttai0hl"><g style="opacity: 0.3; transform-origin: 291.005px 267.955px;" class="animable" id="elphd4fi36i88"><path d="M327.74,244.16c.47-.27.84-.06.84.48v3a1.86,1.86,0,0,1-.83,1.45l-73.48,42.67c-.46.27-.84,0-.84-.48v-3a1.82,1.82,0,0,1,.83-1.44Z" style="fill: rgb(255, 255, 255); transform-origin: 291.005px 267.955px;" id="el2nicq9vfetf" class="animable"></path></g></g><path d="M267.93,241.91V246a5.84,5.84,0,0,1-3,5.15c-1.89,1.09-3,.5-3-1.68v-4.07l1.81-1v4c0,1.26.46,1.5,1.22,1.06a2.57,2.57,0,0,0,1.2-2.46v-4Z" style="fill: #0A99F7; transform-origin: 264.93px 246.797px;" id="elm17otphexm" class="animable"></path><path d="M272.08,239.52c1.74-1,2.83-.6,2.84,1.07a5.26,5.26,0,0,1-2.83,4.35l-1.11.64v1.92l-1.81,1.05,0-7.35Zm-.1,3.84a2,2,0,0,0,1.11-1.71c0-.69-.37-.87-1.12-.43l-1,.58v2.14l1-.58" style="fill: #0A99F7; transform-origin: 272.045px 243.764px;" id="ellui1o1gpdud" class="animable"></path><polygon points="277.6 236.33 277.61 242.02 280.66 240.26 280.66 241.91 275.81 244.71 275.79 237.37 277.6 236.33" style="fill: #0A99F7; transform-origin: 278.225px 240.52px;" id="elm6grgkpyy9j" class="animable"></polygon><path d="M284.48,232.2c2-1.18,3.56-.43,3.56,1.77a7.28,7.28,0,0,1-3.53,5.87c-2.05,1.18-3.56.43-3.57-1.77A7.29,7.29,0,0,1,284.48,232.2Zm0,5.92a3.7,3.7,0,0,0,1.71-3.09c0-1.27-.76-1.66-1.72-1.1a3.72,3.72,0,0,0-1.72,3.09c0,1.26.76,1.66,1.73,1.1" style="fill: #0A99F7; transform-origin: 284.49px 236.02px;" id="elyc1nr4de8m" class="animable"></path><path d="M292.73,227.59l2.85,5.71-1.89,1.09-.5-1.15-2.7,1.57-.5,1.72-1.84,1.06,2.8-9ZM291,233l1.63-.94-.82-1.89L291,233" style="fill: #0A99F7; transform-origin: 291.865px 232.59px;" id="elkhcjspblfh" class="animable"></path><path d="M299.09,223.92c2.12-1.22,3.57-.64,3.58,1.61a6.91,6.91,0,0,1-3.56,5.73l-3,1.74,0-7.34Zm-.06,5.72a3.57,3.57,0,0,0,1.81-3.06c0-1.27-.73-1.59-1.82-1l-1.14.66v4l1.14-.66" style="fill: #0A99F7; transform-origin: 299.39px 228.147px;" id="elaj139y48gww" class="animable"></path><polygon points="305.42 220.27 305.44 227.61 303.63 228.65 303.61 221.31 305.42 220.27" style="fill: #0A99F7; transform-origin: 304.525px 224.46px;" id="el5lj7s9h7qk5" class="animable"></polygon><polygon points="312.79 216.01 312.81 223.35 311.31 224.22 308.49 221.92 308.5 225.84 306.73 226.86 306.7 219.52 308.19 218.66 311.02 220.95 311.01 217.04 312.79 216.01" style="fill: #0A99F7; transform-origin: 309.755px 221.435px;" id="elpavatg2sp8" class="animable"></polygon><path d="M317.3,213.26c1.19-.69,2.16-.78,2.79-.27l-1.15,1.86a1.36,1.36,0,0,0-1.55.08,3.73,3.73,0,0,0-1.82,3.15c0,1.23.74,1.68,1.81,1a3.75,3.75,0,0,0,1-.8v-2l1.59-.92v3a8.91,8.91,0,0,1-2.68,2.48c-2,1.18-3.53.45-3.53-1.78A7.16,7.16,0,0,1,317.3,213.26Z" style="fill: #0A99F7; transform-origin: 316.925px 217.032px;" id="el7hxjajedi6b" class="animable"></path><g id="elwo5x4b0rp4b"><g style="opacity: 0.3; transform-origin: 291.01px 232.174px;" class="animable" id="el69ikip6zrt6"><path d="M267.93,241.91V246a5.84,5.84,0,0,1-3,5.15c-1.89,1.09-3,.5-3-1.68v-4.07l1.81-1v4c0,1.26.46,1.5,1.22,1.06a2.57,2.57,0,0,0,1.2-2.46v-4Z" id="el8enqdw60mt" class="animable" style="transform-origin: 264.93px 246.797px;"></path><path d="M272.08,239.52c1.74-1,2.83-.6,2.84,1.07a5.26,5.26,0,0,1-2.83,4.35l-1.11.64v1.92l-1.81,1.05,0-7.35Zm-.1,3.84a2,2,0,0,0,1.11-1.71c0-.69-.37-.87-1.12-.43l-1,.58v2.14l1-.58" id="el2w9xdmasay1" class="animable" style="transform-origin: 272.045px 243.764px;"></path><polygon points="277.6 236.33 277.61 242.02 280.66 240.26 280.66 241.91 275.81 244.71 275.79 237.37 277.6 236.33" id="elta7yzgibc1o" class="animable" style="transform-origin: 278.225px 240.52px;"></polygon><path d="M284.48,232.2c2-1.18,3.56-.43,3.56,1.77a7.28,7.28,0,0,1-3.53,5.87c-2.05,1.18-3.56.43-3.57-1.77A7.29,7.29,0,0,1,284.48,232.2Zm0,5.92a3.7,3.7,0,0,0,1.71-3.09c0-1.27-.76-1.66-1.72-1.1a3.72,3.72,0,0,0-1.72,3.09c0,1.26.76,1.66,1.73,1.1" id="eliy5uzkxufng" class="animable" style="transform-origin: 284.49px 236.02px;"></path><path d="M292.73,227.59l2.85,5.71-1.89,1.09-.5-1.15-2.7,1.57-.5,1.72-1.84,1.06,2.8-9ZM291,233l1.63-.94-.82-1.89L291,233" id="elzkkvlctgjxb" class="animable" style="transform-origin: 291.865px 232.59px;"></path><path d="M299.09,223.92c2.12-1.22,3.57-.64,3.58,1.61a6.91,6.91,0,0,1-3.56,5.73l-3,1.74,0-7.34Zm-.06,5.72a3.57,3.57,0,0,0,1.81-3.06c0-1.27-.73-1.59-1.82-1l-1.14.66v4l1.14-.66" id="eldjpyqid9j54" class="animable" style="transform-origin: 299.39px 228.147px;"></path><polygon points="305.42 220.27 305.44 227.61 303.63 228.65 303.61 221.31 305.42 220.27" id="eld0ac9bhau66" class="animable" style="transform-origin: 304.525px 224.46px;"></polygon><polygon points="312.79 216.01 312.81 223.35 311.31 224.22 308.49 221.92 308.5 225.84 306.73 226.86 306.7 219.52 308.19 218.66 311.02 220.95 311.01 217.04 312.79 216.01" id="el7hrmxn9j6b" class="animable" style="transform-origin: 309.755px 221.435px;"></polygon><path d="M317.3,213.26c1.19-.69,2.16-.78,2.79-.27l-1.15,1.86a1.36,1.36,0,0,0-1.55.08,3.73,3.73,0,0,0-1.82,3.15c0,1.23.74,1.68,1.81,1a3.75,3.75,0,0,0,1-.8v-2l1.59-.92v3a8.91,8.91,0,0,1-2.68,2.48c-2,1.18-3.53.45-3.53-1.78A7.16,7.16,0,0,1,317.3,213.26Z" id="elc9a5vtp3lbu" class="animable" style="transform-origin: 316.925px 217.032px;"></path></g></g><g id="elh22jfbkb7xk"><g style="opacity: 0.1; transform-origin: 291.01px 232.174px;" class="animable" id="elp1bmbmxd96"><path d="M267.93,241.91V246a5.84,5.84,0,0,1-3,5.15c-1.89,1.09-3,.5-3-1.68v-4.07l1.81-1v4c0,1.26.46,1.5,1.22,1.06a2.57,2.57,0,0,0,1.2-2.46v-4Z" style="fill: rgb(255, 255, 255); transform-origin: 264.93px 246.797px;" id="elbtpiysus55p" class="animable"></path><path d="M272.08,239.52c1.74-1,2.83-.6,2.84,1.07a5.26,5.26,0,0,1-2.83,4.35l-1.11.64v1.92l-1.81,1.05,0-7.35Zm-.1,3.84a2,2,0,0,0,1.11-1.71c0-.69-.37-.87-1.12-.43l-1,.58v2.14l1-.58" style="fill: rgb(255, 255, 255); transform-origin: 272.045px 243.764px;" id="elabsycs99b4f" class="animable"></path><polygon points="277.6 236.33 277.61 242.02 280.66 240.26 280.66 241.91 275.81 244.71 275.79 237.37 277.6 236.33" style="fill: rgb(255, 255, 255); transform-origin: 278.225px 240.52px;" id="elpca8fzlp4ij" class="animable"></polygon><path d="M284.48,232.2c2-1.18,3.56-.43,3.56,1.77a7.28,7.28,0,0,1-3.53,5.87c-2.05,1.18-3.56.43-3.57-1.77A7.29,7.29,0,0,1,284.48,232.2Zm0,5.92a3.7,3.7,0,0,0,1.71-3.09c0-1.27-.76-1.66-1.72-1.1a3.72,3.72,0,0,0-1.72,3.09c0,1.26.76,1.66,1.73,1.1" style="fill: rgb(255, 255, 255); transform-origin: 284.49px 236.02px;" id="elpgkamgd5sd" class="animable"></path><path d="M292.73,227.59l2.85,5.71-1.89,1.09-.5-1.15-2.7,1.57-.5,1.72-1.84,1.06,2.8-9ZM291,233l1.63-.94-.82-1.89L291,233" style="fill: rgb(255, 255, 255); transform-origin: 291.865px 232.59px;" id="elpkxhhodn3ti" class="animable"></path><path d="M299.09,223.92c2.12-1.22,3.57-.64,3.58,1.61a6.91,6.91,0,0,1-3.56,5.73l-3,1.74,0-7.34Zm-.06,5.72a3.57,3.57,0,0,0,1.81-3.06c0-1.27-.73-1.59-1.82-1l-1.14.66v4l1.14-.66" style="fill: rgb(255, 255, 255); transform-origin: 299.39px 228.147px;" id="eltbuwxwa7ypp" class="animable"></path><polygon points="305.42 220.27 305.44 227.61 303.63 228.65 303.61 221.31 305.42 220.27" style="fill: rgb(255, 255, 255); transform-origin: 304.525px 224.46px;" id="elk7junz6ymi" class="animable"></polygon><polygon points="312.79 216.01 312.81 223.35 311.31 224.22 308.49 221.92 308.5 225.84 306.73 226.86 306.7 219.52 308.19 218.66 311.02 220.95 311.01 217.04 312.79 216.01" style="fill: rgb(255, 255, 255); transform-origin: 309.755px 221.435px;" id="el8cfef7d3d7c" class="animable"></polygon><path d="M317.3,213.26c1.19-.69,2.16-.78,2.79-.27l-1.15,1.86a1.36,1.36,0,0,0-1.55.08,3.73,3.73,0,0,0-1.82,3.15c0,1.23.74,1.68,1.81,1a3.75,3.75,0,0,0,1-.8v-2l1.59-.92v3a8.91,8.91,0,0,1-2.68,2.48c-2,1.18-3.53.45-3.53-1.78A7.16,7.16,0,0,1,317.3,213.26Z" style="fill: rgb(255, 255, 255); transform-origin: 316.925px 217.032px;" id="el2nl5ibujpin" class="animable"></path></g></g><polygon points="283.01 249.91 283.03 257.25 281.22 258.29 281.2 252.56 280.02 253.24 280.01 251.64 283.01 249.91" style="fill: rgb(255, 255, 255); transform-origin: 281.52px 254.1px;" id="elk28szzkcp4l" class="animable"></polygon><path d="M286.79,247.59c1.62-.94,2.81-.23,2.81,2.19a6.23,6.23,0,0,1-2.79,5.44c-1.63.94-2.83.23-2.83-2.19A6.23,6.23,0,0,1,286.79,247.59Zm0,5.93c.58-.33,1-1.15,1-2.69s-.42-1.88-1-1.55-1,1.16-1,2.7.42,1.87,1,1.54" style="fill: rgb(255, 255, 255); transform-origin: 286.79px 251.405px;" id="el1g7gtw52idf" class="animable"></path><path d="M293,244c1.63-.95,2.82-.24,2.82,2.19a6.22,6.22,0,0,1-2.8,5.44c-1.63.94-2.82.23-2.83-2.19A6.24,6.24,0,0,1,293,244Zm0,5.93c.58-.33,1-1.15,1-2.7s-.43-1.87-1-1.53-1,1.15-1,2.69.42,1.87,1,1.54" style="fill: rgb(255, 255, 255); transform-origin: 293.005px 247.812px;" id="el9qrkh4g9hn5" class="animable"></path><path d="M299.65,242.25a3.49,3.49,0,0,1-1.64,3c-.94.54-1.63.18-1.64-1.09a3.49,3.49,0,0,1,1.63-3C299,240.61,299.64,241,299.65,242.25Zm-2.18,1.26c0,.74.25.89.53.73a1.45,1.45,0,0,0,.54-1.35c0-.75-.23-.91-.54-.73a1.48,1.48,0,0,0-.53,1.35" style="fill: rgb(255, 255, 255); transform-origin: 298.01px 243.205px;" id="ela7g6betysve" class="animable"></path><polygon points="301.78 239.07 303.09 238.31 298.75 248.17 297.44 248.93 301.78 239.07" style="fill: rgb(255, 255, 255); transform-origin: 300.265px 243.62px;" id="elbk43pxuvgjw" class="animable"></polygon><path d="M302.52,242c.94-.55,1.64-.19,1.65,1.09a3.51,3.51,0,0,1-1.64,3c-.95.54-1.64.18-1.64-1.09A3.46,3.46,0,0,1,302.52,242Zm0,3.07c.3-.17.53-.6.53-1.34s-.24-.91-.54-.73a1.46,1.46,0,0,0-.54,1.35c0,.74.25.9.55.72" style="fill: rgb(255, 255, 255); transform-origin: 302.53px 244.042px;" id="ela52lp8qeu1" class="animable"></path></g><g id="freepik--speech-bubble--inject-105" class="animable" style="transform-origin: 183.49px 109.359px;"><path d="M195.06,85.7l-28.79,16.51a5.67,5.67,0,0,0-2.82,4.87v21a5.55,5.55,0,0,0,8.49,4.57l5-2.86.45.73.07.07h0l0,0h0c.82.55,2.27,1.32,2.6,1.49v0a.31.31,0,0,0,.38-.19l1.84-5.22h0l18.37-10.5a5.62,5.62,0,0,0,2.83-4.88v-21C203.54,86.21,197.58,84.25,195.06,85.7Z" style="fill: #0A99F7; transform-origin: 183.465px 109.359px;" id="el63pzm1ibdpc" class="animable"></path><path d="M171.28,105.62h0Z" style="fill: none; transform-origin: 171.28px 105.62px;" id="elt5vfypommek" class="animable"></path><g id="elry7nu4syp2h"><path d="M177.39,130.47l.07.07h0l0,0h0c.82.55,2.27,1.32,2.6,1.49v0a.29.29,0,0,1-.18-.13L178.15,129l.36-.2h0l-1.57.9Z" style="fill: rgb(255, 255, 255); opacity: 0.2; transform-origin: 178.5px 130.415px;" class="animable" id="elmtico6gmlp"></path></g><g id="elv8s0w0679sm"><path d="M169.77,107.51a5.71,5.71,0,0,1,1.5-1.89h0a4.81,4.81,0,0,1,.68-.47l28.78-16.51a1.87,1.87,0,0,1,2.8,1.62c0-4.05-6-6-8.48-4.56l-28.79,16.51a5.6,5.6,0,0,0-2.09,2.12Z" style="fill: rgb(255, 255, 255); opacity: 0.4; transform-origin: 183.85px 96.369px;" class="animable" id="elzzz8yfyrenq"></path></g><g id="elvnhz8f6hf0p"><path d="M169.13,131V110a4.91,4.91,0,0,1,.05-.67,5.72,5.72,0,0,1,.59-1.85l-5.59-3.18a5.57,5.57,0,0,0-.73,2.75v21a5.55,5.55,0,0,0,8.49,4.57A1.88,1.88,0,0,1,169.13,131Z" style="fill: rgb(255, 255, 255); opacity: 0.2; transform-origin: 167.695px 118.882px;" class="animable" id="elg5umy0xn2xl"></path></g><path d="M196.54,96.22a1.18,1.18,0,0,1,1.16-.12c.65.37.65,1.57,0,2.68l-12.55,21.74a3.42,3.42,0,0,1-1.16,1.22,1.18,1.18,0,0,1-1.17.12l-5.52-3.14c-.64-.37-.65-1.56,0-2.67a3.28,3.28,0,0,1,1.15-1.23,1.2,1.2,0,0,1,1.17-.12l4.35,2.49,11.4-19.75A3.42,3.42,0,0,1,196.54,96.22Z" style="fill: rgb(255, 255, 255); transform-origin: 187.502px 108.981px;" id="ell5eqpf89q9k" class="animable"></path></g><g id="freepik--Folder--inject-105" class="animable" style="transform-origin: 314.83px 165.19px;"><path d="M284.78,66.92a146.53,146.53,0,0,0,21.57,15c1.48.85,3,1.69,4.49,2.5l.49.27c4.29,2.48,6.31,6,5,9.47a8,8,0,0,0-.46,4c.46,3.18,2.83,6.09,6.73,8.34l-5.74,3.37a14.72,14.72,0,0,1-13.19,0,42.28,42.28,0,0,0,8.7-4c-.57.25-1.16.49-1.75.73a17.19,17.19,0,0,1-13.69-.82c-.18-.1-.35-.21-.51-.32a76.05,76.05,0,0,0,11.66-3.71c-5.92,2.22-13.51,1.59-18.31-1.18a11.67,11.67,0,0,1-1.35-.89c-1-.74-1.82-1.4-2.3-1.8a78.66,78.66,0,0,0,15.43-.41h-.2a37.51,37.51,0,0,1-17.86-4.46c-3.63-2.1-6.25-4.8-7.37-7.85l-.15-.45a80.36,80.36,0,0,0,22.56,7.16,97.45,97.45,0,0,1-16-6.6q-.33-.16-.66-.36c-5.13-3-6.84-7.41-4.33-11.37A83.82,83.82,0,0,0,287,79.91a111,111,0,0,0,13.71,6.61c-1.37-.71-2.71-1.43-4-2.18a75.27,75.27,0,0,1-13.45-9.79C280.6,72.1,281.23,68.93,284.78,66.92Z" style="fill: #0A99F7; transform-origin: 299.285px 89.175px;" id="el2rh3omv2ydh" class="animable"></path><g id="elk8gwtzf7cj8"><g style="opacity: 0.2; transform-origin: 299.285px 89.175px;" class="animable" id="el3rfxhyex98k"><path d="M284.78,66.92a146.53,146.53,0,0,0,21.57,15c1.48.85,3,1.69,4.49,2.5l.49.27c4.29,2.48,6.31,6,5,9.47a8,8,0,0,0-.46,4c.46,3.18,2.83,6.09,6.73,8.34l-5.74,3.37a14.72,14.72,0,0,1-13.19,0,42.28,42.28,0,0,0,8.7-4c-.57.25-1.16.49-1.75.73a17.19,17.19,0,0,1-13.69-.82c-.18-.1-.35-.21-.51-.32a76.05,76.05,0,0,0,11.66-3.71c-5.92,2.22-13.51,1.59-18.31-1.18a11.67,11.67,0,0,1-1.35-.89c-1-.74-1.82-1.4-2.3-1.8a78.66,78.66,0,0,0,15.43-.41h-.2a37.51,37.51,0,0,1-17.86-4.46c-3.63-2.1-6.25-4.8-7.37-7.85l-.15-.45a80.36,80.36,0,0,0,22.56,7.16,97.45,97.45,0,0,1-16-6.6q-.33-.16-.66-.36c-5.13-3-6.84-7.41-4.33-11.37A83.82,83.82,0,0,0,287,79.91a111,111,0,0,0,13.71,6.61c-1.37-.71-2.71-1.43-4-2.18a75.27,75.27,0,0,1-13.45-9.79C280.6,72.1,281.23,68.93,284.78,66.92Z" id="elagfv0rg77r" class="animable" style="transform-origin: 299.285px 89.175px;"></path></g></g><g id="el8p2x8extmtl"><g style="opacity: 0.4; transform-origin: 299.285px 89.175px;" class="animable" id="elxyupsrxnn5h"><path d="M284.78,66.92a146.53,146.53,0,0,0,21.57,15c1.48.85,3,1.69,4.49,2.5l.49.27c4.29,2.48,6.31,6,5,9.47a8,8,0,0,0-.46,4c.46,3.18,2.83,6.09,6.73,8.34l-5.74,3.37a14.72,14.72,0,0,1-13.19,0,42.28,42.28,0,0,0,8.7-4c-.57.25-1.16.49-1.75.73a17.19,17.19,0,0,1-13.69-.82c-.18-.1-.35-.21-.51-.32a76.05,76.05,0,0,0,11.66-3.71c-5.92,2.22-13.51,1.59-18.31-1.18a11.67,11.67,0,0,1-1.35-.89c-1-.74-1.82-1.4-2.3-1.8a78.66,78.66,0,0,0,15.43-.41h-.2a37.51,37.51,0,0,1-17.86-4.46c-3.63-2.1-6.25-4.8-7.37-7.85l-.15-.45a80.36,80.36,0,0,0,22.56,7.16,97.45,97.45,0,0,1-16-6.6q-.33-.16-.66-.36c-5.13-3-6.84-7.41-4.33-11.37A83.82,83.82,0,0,0,287,79.91a111,111,0,0,0,13.71,6.61c-1.37-.71-2.71-1.43-4-2.18a75.27,75.27,0,0,1-13.45-9.79C280.6,72.1,281.23,68.93,284.78,66.92Z" style="fill: rgb(255, 255, 255); transform-origin: 299.285px 89.175px;" id="ela9s8kmv2q1f" class="animable"></path></g></g><path d="M327.92,98.08V96.42A2.12,2.12,0,0,1,329,94.59L343.85,86a1.05,1.05,0,0,1,1.58.91v35.27l-38.08,22v-33l19.51-11.27A2.11,2.11,0,0,0,327.92,98.08Z" style="fill: rgb(69, 90, 100); transform-origin: 326.39px 115.018px;" id="eligxmqvlebtl" class="animable"></path><g id="el5rjjcj7t5d8"><path d="M327.92,98.08V96.42A2.12,2.12,0,0,1,329,94.59L343.85,86a1.05,1.05,0,0,1,1.58.91v35.27l-38.08,22v-33l19.51-11.27A2.11,2.11,0,0,0,327.92,98.08Z" style="opacity: 0.2; transform-origin: 326.39px 115.018px;" class="animable" id="el81vevnbimdx"></path></g><g id="elf7tw4v2pzw"><path d="M327.92,98.08V96.42A2.12,2.12,0,0,1,329,94.59L343.85,86a1.05,1.05,0,0,1,1.58.91v35.27l-38.08,22v-33l19.51-11.27A2.11,2.11,0,0,0,327.92,98.08Z" style="fill: rgb(255, 255, 255); opacity: 0.1; transform-origin: 326.39px 115.018px;" class="animable" id="elmkgt35oop8r"></path></g><polygon points="307.35 144.69 310.17 113.56 348.25 91.04 345.43 122.17 307.35 144.69" style="fill: rgb(69, 90, 100); transform-origin: 327.8px 117.865px;" id="elhsyrrhlgup7" class="animable"></polygon><g id="elpvx2cf8taop"><polygon points="307.35 144.69 310.17 113.56 348.25 91.04 345.43 122.17 307.35 144.69" style="fill: rgb(255, 255, 255); opacity: 0.6; transform-origin: 327.8px 117.865px;" class="animable" id="elts7b4m4a5bf"></polygon></g><polygon points="345.43 122.17 351.08 92.59 312.99 114.2 307.35 144.16 345.43 122.17" style="fill: rgb(69, 90, 100); transform-origin: 329.215px 118.375px;" id="elt25j75uo3fm" class="animable"></polygon><g id="elmz12uz08yo"><polygon points="345.43 122.17 351.08 92.59 312.99 114.2 307.35 144.16 345.43 122.17" style="opacity: 0.2; transform-origin: 329.215px 118.375px;" class="animable" id="elimcmnx5rqz"></polygon></g><g id="eleor7auomi4p"><polygon points="345.43 122.17 351.08 92.59 312.99 114.2 307.35 144.16 345.43 122.17" style="fill: rgb(255, 255, 255); opacity: 0.2; transform-origin: 329.215px 118.375px;" class="animable" id="eld7f5jlg48p5"></polygon></g><path d="M404,135.68c-3.53,2.1-9,2.47-13.23,1a105.7,105.7,0,0,1-16.95-7.76q-1.95-1.14-3.78-2.32a84.73,84.73,0,0,0,11.46,7.92,91.39,91.39,0,0,0,11.09,5.42c-7,1.49-14.65.52-19.79-2.45l-.62-.38a60.14,60.14,0,0,1-11.45-9.25,35.84,35.84,0,0,0,12.45,13l-.78-.08a36.25,36.25,0,0,1-13.57-4.24c-4.66-2.69-7.58-6.34-7.77-10.33v-.12a15.63,15.63,0,0,0-.65,8.94c-.7-.28-1.83-.76-3.12-1.32a17,17,0,0,1-1.54-.78c-4.8-2.77-5.9-7.17-2.18-10.54a30.35,30.35,0,0,0-6.22,6.73,6.51,6.51,0,0,1-.61-.33c-3.64-2.1-4.33-5.42-1.46-7.92.4-.35.81-.68,1.24-1a29.76,29.76,0,0,0-6.9,5.06c-3.59-2.11-3.58-5.55,0-7.64l5.77-3.36a32.15,32.15,0,0,0,14.44,3.89,40.3,40.3,0,0,0,6.87-.28,27,27,0,0,1,16.35,2.88c.16.09.32.18.47.28q2.13,1.32,4.33,2.59A187,187,0,0,0,404,135.68Z" style="fill: #0A99F7; transform-origin: 365.466px 127.395px;" id="el0akfsyhgmvd" class="animable"></path><g id="el2omujqwqgth"><g style="opacity: 0.2; transform-origin: 365.466px 127.395px;" class="animable" id="el8hwainao7t6"><path d="M404,135.68c-3.53,2.1-9,2.47-13.23,1a105.7,105.7,0,0,1-16.95-7.76q-1.95-1.14-3.78-2.32a84.73,84.73,0,0,0,11.46,7.92,91.39,91.39,0,0,0,11.09,5.42c-7,1.49-14.65.52-19.79-2.45l-.62-.38a60.14,60.14,0,0,1-11.45-9.25,35.84,35.84,0,0,0,12.45,13l-.78-.08a36.25,36.25,0,0,1-13.57-4.24c-4.66-2.69-7.58-6.34-7.77-10.33v-.12a15.63,15.63,0,0,0-.65,8.94c-.7-.28-1.83-.76-3.12-1.32a17,17,0,0,1-1.54-.78c-4.8-2.77-5.9-7.17-2.18-10.54a30.35,30.35,0,0,0-6.22,6.73,6.51,6.51,0,0,1-.61-.33c-3.64-2.1-4.33-5.42-1.46-7.92.4-.35.81-.68,1.24-1a29.76,29.76,0,0,0-6.9,5.06c-3.59-2.11-3.58-5.55,0-7.64l5.77-3.36a32.15,32.15,0,0,0,14.44,3.89,40.3,40.3,0,0,0,6.87-.28,27,27,0,0,1,16.35,2.88c.16.09.32.18.47.28q2.13,1.32,4.33,2.59A187,187,0,0,0,404,135.68Z" id="elco6yaepcl65" class="animable" style="transform-origin: 365.466px 127.395px;"></path></g></g><g id="elw8anz0g71y"><g style="opacity: 0.4; transform-origin: 365.466px 127.395px;" class="animable" id="ellhytiw0sd4o"><path d="M404,135.68c-3.53,2.1-9,2.47-13.23,1a105.7,105.7,0,0,1-16.95-7.76q-1.95-1.14-3.78-2.32a84.73,84.73,0,0,0,11.46,7.92,91.39,91.39,0,0,0,11.09,5.42c-7,1.49-14.65.52-19.79-2.45l-.62-.38a60.14,60.14,0,0,1-11.45-9.25,35.84,35.84,0,0,0,12.45,13l-.78-.08a36.25,36.25,0,0,1-13.57-4.24c-4.66-2.69-7.58-6.34-7.77-10.33v-.12a15.63,15.63,0,0,0-.65,8.94c-.7-.28-1.83-.76-3.12-1.32a17,17,0,0,1-1.54-.78c-4.8-2.77-5.9-7.17-2.18-10.54a30.35,30.35,0,0,0-6.22,6.73,6.51,6.51,0,0,1-.61-.33c-3.64-2.1-4.33-5.42-1.46-7.92.4-.35.81-.68,1.24-1a29.76,29.76,0,0,0-6.9,5.06c-3.59-2.11-3.58-5.55,0-7.64l5.77-3.36a32.15,32.15,0,0,0,14.44,3.89,40.3,40.3,0,0,0,6.87-.28,27,27,0,0,1,16.35,2.88c.16.09.32.18.47.28q2.13,1.32,4.33,2.59A187,187,0,0,0,404,135.68Z" style="fill: rgb(255, 255, 255); transform-origin: 365.466px 127.395px;" id="el4o3a86hox4f" class="animable"></path></g></g><path d="M302.23,132.47a1,1,0,0,1-.86-.49,1,1,0,0,1,.36-1.37l1.72-1a1,1,0,0,1,1,1.72l-1.72,1A.94.94,0,0,1,302.23,132.47Z" style="fill: rgb(224, 224, 224); transform-origin: 303.047px 130.996px;" id="el0rl19ser96go" class="animable"></path><path d="M226.73,255.29h0a1,1,0,0,1-1-1c0-1.37.06-2.73.12-4.1a1,1,0,1,1,2,.08c-.06,1.35-.09,2.71-.12,4.06A1,1,0,0,1,226.73,255.29Zm.5-10.19h-.09a1,1,0,0,1-.9-1.09c.12-1.4.27-2.78.44-4.1a1,1,0,0,1,2,.26c-.17,1.29-.32,2.64-.44,4A1,1,0,0,1,227.23,245.1ZM228.7,235a.76.76,0,0,1-.21,0,1,1,0,0,1-.77-1.18c.3-1.37.63-2.72,1-4a1,1,0,1,1,1.92.55c-.35,1.26-.68,2.57-1,3.9A1,1,0,0,1,228.7,235Zm3-9.76a1,1,0,0,1-.38-.07,1,1,0,0,1-.55-1.3c.53-1.3,1.11-2.58,1.72-3.8a1,1,0,0,1,1.79.91c-.59,1.16-1.15,2.39-1.65,3.64A1,1,0,0,1,231.66,225.25Zm4.82-9a1,1,0,0,1-.57-.18,1,1,0,0,1-.25-1.39,38.77,38.77,0,0,1,2.58-3.3,1,1,0,0,1,1.51,1.32,36.39,36.39,0,0,0-2.45,3.13A1,1,0,0,1,236.48,216.28Zm6.89-7.49a1,1,0,0,1-.66-1.76c1-.89,2.09-1.76,3.15-2.63a1,1,0,1,1,1.27,1.54c-1,.86-2.09,1.72-3.11,2.6A1,1,0,0,1,243.37,208.79Zm7.79-6.59a1,1,0,0,1-.74-.33,1,1,0,0,1,.06-1.41,36.41,36.41,0,0,0,2.78-2.83,1,1,0,1,1,1.51,1.31,38.6,38.6,0,0,1-2.93,3A1,1,0,0,1,251.16,202.2Zm6.2-8a1,1,0,0,1-.41-.09,1,1,0,0,1-.5-1.33c.15-.32.28-.64.41-1a17.28,17.28,0,0,0,.77-2.69,1,1,0,1,1,2,.41,20.08,20.08,0,0,1-.86,3c-.14.37-.29.73-.46,1.09A1,1,0,0,1,257.36,194.19Zm1.9-10h0a1,1,0,0,1-1-1l.06-2c0-.71,0-1.42.07-2.12a1,1,0,0,1,2,.08c0,.7-.05,1.4-.07,2.1l-.06,2A1,1,0,0,1,259.26,184.23Zm.79-10.16-.19,0a1,1,0,0,1-.79-1.17,32.93,32.93,0,0,1,1.06-4.07,1,1,0,1,1,1.9.62,33.22,33.22,0,0,0-1,3.83A1,1,0,0,1,260.05,174.07Zm3.41-9.58a.92.92,0,0,1-.46-.11,1,1,0,0,1-.43-1.35c.63-1.21,1.35-2.42,2.12-3.6a1,1,0,0,1,1.38-.29,1,1,0,0,1,.29,1.38c-.74,1.13-1.41,2.28-2,3.44A1,1,0,0,1,263.46,164.49Zm5.74-8.41a1,1,0,0,1-.65-.24,1,1,0,0,1-.11-1.41c.88-1,1.83-2.05,2.81-3.06a1,1,0,0,1,1.43,1.41c-.95,1-1.87,2-2.72,2.95A1,1,0,0,1,269.2,156.08Zm7.27-7.16a1,1,0,0,1-.65-1.76c1-.87,2.12-1.74,3.23-2.58a1,1,0,0,1,1.21,1.59c-1.08.82-2.14,1.67-3.15,2.52A1,1,0,0,1,276.47,148.92Zm8.19-6.07a1,1,0,0,1-.54-1.84c1.13-.74,2.3-1.48,3.49-2.19a1,1,0,1,1,1,1.71c-1.16.7-2.32,1.42-3.43,2.15A1,1,0,0,1,284.66,142.85Zm8.75-5.25a1,1,0,0,1-.5-1.87l3.53-2a1,1,0,1,1,1,1.73l-3.54,2A.9.9,0,0,1,293.41,137.6Z" style="fill: rgb(224, 224, 224); transform-origin: 261.873px 194.397px;" id="elpjzfhbfgfo" class="animable"></path><path d="M226.66,263.46h0a1,1,0,0,1-1-1v-2a1,1,0,0,1,2,0v2A1,1,0,0,1,226.66,263.46Z" style="fill: rgb(224, 224, 224); transform-origin: 226.66px 261.46px;" id="eldpbqvf9rffl" class="animable"></path></g><defs>     <filter id="active" height="200%">         <feMorphology in="SourceAlpha" result="DILATED" operator="dilate" radius="2"></feMorphology>                <feFlood flood-color="#32DFEC" flood-opacity="1" result="PINK"></feFlood>        <feComposite in="PINK" in2="DILATED" operator="in" result="OUTLINE"></feComposite>        <feMerge>            <feMergeNode in="OUTLINE"></feMergeNode>            <feMergeNode in="SourceGraphic"></feMergeNode>        </feMerge>    </filter>    <filter id="hover" height="200%">        <feMorphology in="SourceAlpha" result="DILATED" operator="dilate" radius="2"></feMorphology>                <feFlood flood-color="#ff0000" flood-opacity="0.5" result="PINK"></feFlood>        <feComposite in="PINK" in2="DILATED" operator="in" result="OUTLINE"></feComposite>        <feMerge>            <feMergeNode in="OUTLINE"></feMergeNode>            <feMergeNode in="SourceGraphic"></feMergeNode>        </feMerge>            <feColorMatrix type="matrix" values="0   0   0   0   0                0   1   0   0   0                0   0   0   0   0                0   0   0   1   0 "></feColorMatrix>    </filter></defs></svg>